<?xml version="1.0" encoding="UTF-8"?>
<svg xmlns="http://www.w3.org/2000/svg" xmlns:xlink="http://www.w3.org/1999/xlink" width="98pt" height="89pt" viewBox="0 0 98 89" version="1.1">
<g id="surface1">
<path style=" stroke:none;fill-rule:evenodd;fill:rgb(0%,0%,0%);fill-opacity:1;" d="M 70.667969 14.859375 L 70.132812 15.496094 L 71.675781 16.996094 C 72.523438 17.820312 73.648438 19.070312 74.175781 19.777344 C 74.699219 20.484375 75.285156 21.195312 75.476562 21.359375 C 75.664062 21.523438 76.148438 22.28125 76.546875 23.042969 C 76.949219 23.800781 77.4375 24.652344 77.628906 24.933594 C 78.320312 25.925781 80.011719 29.785156 80.265625 30.953125 C 80.410156 31.605469 80.621094 32.449219 80.738281 32.832031 C 82.199219 37.621094 82.203125 45.71875 80.746094 50.375 C 80.53125 51.050781 80.359375 51.796875 80.359375 52.03125 C 80.359375 52.269531 80.046875 53.253906 79.660156 54.226562 C 74.796875 66.492188 63.394531 75.109375 50.863281 75.992188 C 47.648438 76.21875 41.769531 75.984375 40.464844 75.574219 C 40.148438 75.476562 39.179688 75.195312 38.316406 74.949219 C 34.78125 73.941406 28.554688 70.785156 27.441406 69.4375 C 27.386719 69.371094 26.90625 69.007812 26.375 68.628906 C 25.070312 67.695312 20.988281 63.453125 20.410156 62.429688 C 20.15625 61.976562 19.546875 61.074219 19.058594 60.421875 C 18.292969 59.394531 17.304688 57.515625 16.207031 54.980469 C 12.703125 46.917969 12.695312 36.03125 16.1875 28.558594 C 16.449219 28.003906 16.660156 27.425781 16.660156 27.273438 C 16.664062 26.972656 17.226562 25.855469 18.097656 24.421875 C 18.714844 23.40625 18.6875 23.125 17.921875 22.621094 C 17.324219 22.222656 17.292969 22.25 16.558594 23.964844 C 16.339844 24.472656 16.027344 25.050781 15.859375 25.25 C 15.542969 25.628906 15.265625 26.210938 14.691406 27.6875 C 14.503906 28.179688 14.113281 29.15625 13.828125 29.863281 C 13.539062 30.570312 13.183594 31.863281 13.03125 32.730469 C 12.882812 33.601562 12.578125 35.367188 12.359375 36.652344 C 11.832031 39.71875 11.820312 43.59375 12.332031 46.578125 C 13.179688 51.515625 13.371094 52.515625 13.503906 52.609375 C 13.578125 52.664062 13.753906 53.109375 13.894531 53.597656 C 14.601562 56.082031 18.695312 63.429688 19.828125 64.242188 C 20.027344 64.382812 20.3125 64.738281 20.464844 65.03125 C 20.726562 65.535156 21.824219 66.683594 24.011719 68.726562 C 25.273438 69.910156 27.515625 71.636719 28.519531 72.195312 C 28.949219 72.433594 30.097656 73.097656 31.066406 73.667969 C 35.59375 76.332031 41.324219 77.761719 47.726562 77.820312 C 49.988281 77.84375 51.972656 77.792969 52.136719 77.710938 C 52.296875 77.628906 53.488281 77.367188 54.78125 77.128906 C 56.074219 76.886719 57.355469 76.582031 57.625 76.445312 C 57.894531 76.308594 58.777344 76.042969 59.585938 75.851562 C 60.390625 75.660156 61.273438 75.363281 61.542969 75.191406 C 61.8125 75.019531 62.785156 74.492188 63.699219 74.019531 C 65.457031 73.113281 68.085938 71.585938 68.625 71.15625 C 69.019531 70.84375 71.136719 69.003906 71.425781 68.71875 C 71.542969 68.605469 71.820312 68.382812 72.039062 68.226562 C 73.515625 67.167969 79.183594 59.835938 79.183594 58.984375 C 79.183594 58.867188 79.257812 58.742188 79.34375 58.707031 C 79.433594 58.671875 79.84375 57.796875 80.253906 56.761719 C 81.019531 54.839844 81.328125 54.082031 81.8125 52.953125 C 82.054688 52.382812 82.425781 50.925781 83.324219 46.972656 C 84.324219 42.582031 83.183594 33.21875 81.101562 28.714844 C 80.882812 28.25 80.507812 27.292969 80.265625 26.59375 C 80.023438 25.894531 79.738281 25.210938 79.632812 25.074219 C 79.527344 24.933594 79.183594 24.339844 78.871094 23.746094 C 78.296875 22.664062 78.117188 22.394531 77.21875 21.28125 C 76.945312 20.945312 76.546875 20.324219 76.335938 19.90625 C 76.125 19.488281 75.242188 18.417969 74.378906 17.53125 C 73.511719 16.644531 72.671875 15.742188 72.511719 15.523438 C 72.351562 15.308594 71.988281 14.925781 71.707031 14.675781 L 71.199219 14.21875 L 70.667969 14.859375 M 28.097656 24.234375 C 27.941406 24.636719 27.917969 26.824219 27.980469 33.871094 L 28.027344 39.359375 L 30.773438 39.359375 L 30.773438 38.292969 C 30.773438 36.910156 30.410156 36.992188 36.816406 36.941406 L 42.238281 36.898438 L 36.75 36.792969 C 33.730469 36.734375 31.152344 36.617188 31.015625 36.527344 C 30.644531 36.285156 30.667969 27.234375 31.039062 26.921875 C 31.402344 26.617188 52.507812 26.601562 52.808594 26.90625 C 53.066406 27.167969 53.105469 36.179688 52.851562 36.539062 C 52.726562 36.714844 51.921875 36.785156 50.019531 36.785156 C 48.5625 36.785156 47.433594 36.851562 47.511719 36.933594 C 47.714844 37.140625 57.988281 37.183594 58.484375 36.980469 C 58.746094 36.875 57.933594 36.808594 56.308594 36.800781 C 53.925781 36.789062 53.699219 36.753906 53.507812 36.390625 C 53.179688 35.769531 53.265625 27.3125 53.605469 26.96875 C 54.035156 26.535156 65.570312 26.578125 65.738281 27.011719 C 65.890625 27.417969 65.886719 35.757812 65.734375 36.339844 C 65.625 36.746094 65.496094 36.785156 64.363281 36.785156 C 63.675781 36.785156 63.113281 36.859375 63.113281 36.953125 C 63.113281 37.042969 63.574219 37.101562 64.140625 37.085938 C 65.910156 37.03125 65.855469 36.910156 65.855469 40.808594 C 65.855469 45.054688 66.210938 44.699219 61.984375 44.699219 C 59.765625 44.699219 58.625 44.765625 58.703125 44.894531 C 58.773438 45.015625 60.167969 45.09375 62.21875 45.09375 C 65.136719 45.09375 65.632812 45.136719 65.738281 45.40625 C 66.03125 46.183594 65.863281 54.53125 65.546875 54.796875 C 65.199219 55.089844 52.734375 55.234375 52.28125 54.953125 C 52.097656 54.835938 52.039062 53.621094 52.039062 49.996094 L 52.039062 45.191406 L 53.164062 45.132812 C 53.785156 45.101562 54.292969 44.984375 54.292969 44.875 C 54.292969 44.757812 53.753906 44.703125 52.96875 44.738281 L 51.644531 44.796875 L 51.59375 49.734375 C 51.535156 55.078125 51.558594 54.96875 50.507812 55.050781 C 50.113281 55.082031 49.722656 55.175781 49.640625 55.257812 C 49.429688 55.472656 49.492188 57.335938 49.714844 57.5625 C 49.917969 57.765625 68.292969 57.84375 68.613281 57.644531 C 69 57.402344 68.84375 24.1875 68.453125 24.09375 C 68.265625 24.050781 66.941406 24.035156 65.511719 24.0625 C 64.085938 24.089844 62.804688 24.113281 62.671875 24.113281 C 62.535156 24.113281 54.730469 24.066406 45.324219 24.011719 C 29.558594 23.917969 28.210938 23.933594 28.097656 24.234375 M 30.054688 24.617188 C 30.1875 24.964844 28.875 26.171875 28.515625 26.035156 C 28.183594 25.90625 28.113281 24.714844 28.417969 24.40625 C 28.683594 24.140625 29.9375 24.300781 30.054688 24.617188 M 34.203125 24.527344 C 34.5 25.007812 32.742188 26.203125 31.589844 26.304688 L 30.476562 26.402344 L 30.464844 27.292969 C 30.441406 28.632812 30.441406 28.636719 29.5625 29.457031 C 28.476562 30.46875 28.222656 30.339844 28.222656 28.769531 C 28.222656 27.402344 28.828125 26.414062 30.34375 25.300781 C 30.703125 25.035156 31.101562 24.714844 31.226562 24.582031 C 31.507812 24.289062 34.027344 24.242188 34.203125 24.527344 M 38.332031 24.550781 C 38.410156 24.671875 38.308594 24.867188 38.109375 24.976562 C 37.914062 25.089844 37.546875 25.402344 37.300781 25.671875 C 36.914062 26.089844 36.625 26.179688 35.378906 26.261719 C 33.644531 26.375 33.539062 26.207031 34.609375 25.066406 C 35.339844 24.289062 37.953125 23.925781 38.332031 24.550781 M 42.238281 24.648438 C 42.238281 24.769531 41.855469 25.191406 41.386719 25.585938 C 39.898438 26.84375 37.011719 26.511719 38.417969 25.246094 C 38.738281 24.957031 39.003906 24.628906 39.003906 24.515625 C 39.003906 24.386719 39.601562 24.332031 40.621094 24.367188 C 41.648438 24.40625 42.238281 24.507812 42.238281 24.648438 M 46.175781 24.550781 C 46.539062 25.144531 44.734375 26.304688 43.445312 26.304688 C 41.761719 26.304688 41.554688 26.039062 42.484375 25.082031 C 43.253906 24.296875 45.792969 23.929688 46.175781 24.550781 M 50.175781 24.613281 C 50.175781 25.761719 46.53125 27.035156 45.949219 26.089844 C 45.878906 25.96875 46.15625 25.523438 46.566406 25.101562 C 47.390625 24.246094 50.175781 23.871094 50.175781 24.613281 M 54.097656 24.675781 C 54.097656 25.511719 52.800781 26.304688 51.4375 26.304688 C 49.898438 26.304688 49.703125 26.039062 50.503906 25.03125 C 51.164062 24.191406 54.097656 23.902344 54.097656 24.675781 M 58.015625 24.703125 C 58.015625 25.554688 56.746094 26.304688 55.296875 26.304688 C 53.503906 26.304688 53.355469 25.957031 54.65625 24.796875 C 55.371094 24.164062 58.015625 24.089844 58.015625 24.703125 M 61.933594 24.671875 C 61.933594 25.617188 60.824219 26.304688 59.308594 26.304688 C 57.609375 26.304688 57.425781 25.949219 58.605469 24.933594 C 59.453125 24.203125 61.9375 24.007812 61.933594 24.671875 M 66.050781 24.621094 C 66.050781 25.550781 64.75 26.324219 63.28125 26.265625 C 61.746094 26.199219 61.4375 25.960938 62.136719 25.375 C 62.367188 25.179688 62.738281 24.863281 62.960938 24.671875 C 63.507812 24.210938 66.050781 24.164062 66.050781 24.621094 M 68.296875 25.402344 C 68.445312 26.609375 68.320312 26.949219 67.449219 27.734375 C 66.726562 28.382812 66.246094 28.277344 66.246094 27.464844 C 66.246094 27.144531 66.113281 26.675781 65.949219 26.425781 C 65.570312 25.839844 65.695312 25.542969 66.597656 24.878906 C 67.777344 24.007812 68.136719 24.121094 68.296875 25.402344 M 68.167969 28.125 C 68.800781 28.761719 68.390625 30.695312 67.40625 31.71875 C 66.5625 32.597656 66.246094 32.328125 66.246094 30.71875 C 66.246094 29.050781 67.460938 27.410156 68.167969 28.125 M 30.394531 30.089844 C 30.878906 31.003906 30.519531 32.605469 29.640625 33.449219 C 28.523438 34.523438 28.222656 34.351562 28.222656 32.644531 C 28.222656 30.839844 29.804688 28.980469 30.394531 30.089844 M 68.285156 32.351562 C 68.761719 33.609375 68.101562 35.515625 66.980469 36.121094 C 65.957031 36.675781 65.875 33.753906 66.886719 32.707031 C 67.574219 31.988281 68.097656 31.859375 68.285156 32.351562 M 30.445312 34.660156 C 30.640625 36.1875 30.503906 36.691406 29.695312 37.40625 C 28.550781 38.421875 28.332031 38.320312 28.265625 36.746094 C 28.175781 34.695312 30.199219 32.757812 30.445312 34.660156 M 68.25 36.339844 C 68.703125 38.152344 67.621094 40.691406 66.570312 40.285156 C 65.835938 40 66.128906 37.382812 66.984375 36.644531 C 67.820312 35.921875 68.125 35.847656 68.25 36.339844 M 30.378906 38.367188 C 30.378906 38.867188 30.300781 38.960938 29.902344 38.960938 C 29.257812 38.960938 29.089844 38.625 29.507812 38.160156 C 30.019531 37.589844 30.378906 37.679688 30.378906 38.367188 M 68.25 40.296875 C 68.609375 41.726562 68.425781 42.859375 67.707031 43.582031 C 66.589844 44.710938 66.246094 44.578125 66.246094 43.027344 C 66.246094 41.714844 66.535156 40.742188 66.921875 40.742188 C 67.042969 40.742188 67.292969 40.5625 67.476562 40.347656 C 67.890625 39.859375 68.136719 39.84375 68.25 40.296875 M 28.464844 42.683594 L 28.023438 42.75 L 28.074219 50.199219 L 28.125 57.652344 L 28.910156 57.75 C 29.339844 57.804688 33.441406 57.804688 38.023438 57.75 L 46.355469 57.652344 L 46.355469 55.292969 L 44.785156 54.847656 L 44.6875 49.820312 L 44.589844 44.796875 L 42.566406 44.738281 C 41.207031 44.703125 40.582031 44.75 40.664062 44.886719 C 40.734375 45.003906 41.515625 45.09375 42.445312 45.09375 C 43.628906 45.09375 44.105469 45.164062 44.117188 45.339844 C 44.226562 46.734375 44.0625 54.882812 43.925781 54.96875 C 43.667969 55.128906 31.25 55.058594 30.988281 54.894531 C 30.839844 54.804688 30.773438 53.25 30.773438 49.925781 L 30.773438 45.09375 L 33.222656 45.09375 C 34.722656 45.09375 35.671875 45.015625 35.671875 44.894531 C 35.671875 44.777344 34.804688 44.6875 33.515625 44.671875 C 32.332031 44.660156 31.25 44.636719 31.113281 44.625 C 30.972656 44.609375 30.84375 44.246094 30.808594 43.746094 C 30.777344 43.277344 30.640625 42.855469 30.507812 42.804688 C 30.171875 42.671875 28.996094 42.601562 28.464844 42.683594 M 30.339844 43.351562 C 30.652344 43.667969 30.628906 44.285156 30.28125 44.894531 C 30.128906 45.167969 30 45.320312 29.996094 45.238281 C 29.992188 45.15625 29.738281 45.371094 29.429688 45.714844 C 28.5625 46.695312 28.222656 46.414062 28.222656 44.71875 C 28.222656 43.804688 28.304688 43.3125 28.46875 43.246094 C 28.945312 43.050781 30.109375 43.117188 30.339844 43.351562 M 68.363281 45.539062 C 68.429688 47.035156 67.402344 48.660156 66.589844 48.347656 C 65.847656 48.058594 66.117188 45.566406 66.980469 44.769531 C 68.039062 43.789062 68.292969 43.929688 68.363281 45.539062 M 30.390625 47.285156 C 30.511719 48.722656 30.378906 49.042969 29.289062 49.910156 C 27.84375 51.066406 27.671875 47.972656 29.109375 46.625 C 30.117188 45.683594 30.257812 45.753906 30.390625 47.285156 M 68.328125 48.765625 C 68.707031 50.292969 67.5 52.710938 66.539062 52.339844 C 65.902344 52.09375 66.207031 49.355469 66.9375 48.753906 C 67.703125 48.121094 68.167969 48.125 68.328125 48.765625 M 30.402344 51.5625 C 30.355469 53.0625 29.105469 54.882812 28.484375 54.359375 C 27.789062 53.78125 28.15625 51.636719 29.113281 50.671875 C 30.226562 49.546875 30.457031 49.707031 30.402344 51.5625 M 68.355469 53.371094 C 68.554688 56.039062 65.472656 58.304688 63.015625 57.292969 C 62.414062 57.046875 64.285156 55.378906 65.160156 55.378906 C 65.921875 55.378906 66.246094 55.070312 66.246094 54.359375 C 66.246094 53.582031 66.589844 52.929688 67.195312 52.550781 C 68.035156 52.019531 68.269531 52.183594 68.355469 53.371094 M 30.511719 54.808594 C 30.585938 55.183594 30.746094 55.378906 30.980469 55.378906 C 31.589844 55.378906 31.589844 55.726562 30.972656 56.363281 C 30.648438 56.699219 30.378906 57.046875 30.378906 57.140625 C 30.378906 57.378906 29.253906 57.574219 28.695312 57.433594 C 27.851562 57.21875 28.027344 55.855469 29.027344 54.835938 C 29.914062 53.929688 30.335938 53.921875 30.511719 54.808594 M 35.378906 55.691406 C 35.378906 56.527344 34.03125 57.441406 32.757812 57.472656 C 31.097656 57.507812 30.722656 57.207031 31.445312 56.421875 C 31.722656 56.121094 31.949219 55.816406 31.949219 55.742188 C 31.949219 55.507812 32.585938 55.414062 34.007812 55.445312 C 34.839844 55.464844 35.378906 55.558594 35.378906 55.691406 M 39.335938 55.683594 C 39.554688 56.351562 38.070312 57.410156 36.839844 57.464844 C 34.855469 57.550781 34.597656 57.210938 35.757812 56.042969 C 36.453125 55.339844 39.136719 55.074219 39.335938 55.683594 M 43.257812 55.691406 C 43.386719 56.09375 42.242188 57.175781 41.507812 57.34375 C 39.152344 57.878906 38.292969 57.085938 39.9375 55.894531 C 40.710938 55.335938 43.09375 55.1875 43.257812 55.691406 M 46.019531 56.390625 C 46.089844 57.46875 45.753906 57.65625 44.144531 57.4375 C 42.902344 57.269531 42.515625 56.585938 43.488281 56.273438 C 43.667969 56.21875 43.945312 55.988281 44.105469 55.765625 C 44.722656 54.902344 45.949219 55.304688 46.019531 56.390625 M 51.265625 55.597656 C 51.339844 55.714844 51.179688 56.039062 50.90625 56.3125 C 50.359375 56.867188 49.980469 56.777344 49.980469 56.089844 C 49.980469 55.390625 50.917969 55.03125 51.265625 55.597656 M 55.273438 55.570312 C 56.089844 56.09375 54 57.355469 52.316406 57.355469 C 50.632812 57.355469 50.460938 57.214844 51.285156 56.515625 C 51.574219 56.269531 51.945312 55.914062 52.113281 55.722656 C 52.453125 55.335938 54.730469 55.226562 55.273438 55.570312 M 59.335938 55.539062 C 60.054688 56 57.679688 57.570312 56.351562 57.515625 C 54.816406 57.453125 54.640625 57.191406 55.535156 56.285156 C 56.398438 55.414062 58.5 55.003906 59.335938 55.539062 M 63.386719 55.546875 C 63.503906 55.738281 63.285156 56.019531 62.382812 56.84375 C 61.773438 57.398438 61 57.523438 59.144531 57.367188 C 58.71875 57.332031 59.097656 56.570312 59.816406 56.011719 C 60.640625 55.375 63.085938 55.054688 63.386719 55.546875 M 68.324219 56.8125 C 68.34375 57.300781 68.277344 57.355469 67.6875 57.355469 C 67.226562 57.355469 67.03125 57.265625 67.03125 57.050781 C 67.03125 56.117188 68.292969 55.882812 68.324219 56.8125 M 30.085938 61.113281 L 28.125 61.210938 L 28.070312 63.667969 C 28.039062 65.050781 28.097656 66.207031 28.203125 66.3125 C 28.324219 66.433594 28.394531 65.625 28.40625 64.085938 C 28.421875 61.246094 28.398438 61.3125 29.492188 61.3125 C 30.625 61.3125 30.964844 61.464844 30.976562 61.976562 C 30.984375 62.355469 31.011719 62.347656 31.277344 61.855469 C 31.722656 61.023438 32.535156 61.261719 32.535156 62.230469 C 32.535156 63 32.902344 62.9375 32.964844 62.15625 C 33.058594 61.019531 34.167969 61.015625 34.261719 62.152344 C 34.339844 63.082031 34.691406 63.132812 34.691406 62.214844 C 34.691406 61.710938 34.792969 61.503906 35.082031 61.410156 C 35.65625 61.226562 35.867188 61.449219 35.867188 62.230469 C 35.867188 63.132812 36.320312 63.023438 36.457031 62.085938 C 36.542969 61.488281 36.621094 61.410156 37.140625 61.410156 L 37.730469 61.410156 L 37.789062 62.84375 C 37.863281 64.699219 38.1875 64.699219 38.261719 62.847656 C 38.335938 60.933594 39.1875 60.605469 39.59375 62.332031 L 39.746094 62.992188 L 39.769531 62.265625 C 39.800781 61.074219 41.355469 60.917969 41.355469 62.105469 C 41.355469 62.964844 41.714844 63.007812 41.785156 62.15625 C 41.875 61.039062 42.796875 61.035156 42.886719 62.152344 C 42.929688 62.65625 43.042969 62.894531 43.246094 62.894531 C 43.46875 62.894531 43.527344 62.710938 43.480469 62.152344 C 43.417969 61.445312 43.445312 61.410156 44.003906 61.410156 L 44.589844 61.410156 L 44.648438 62.84375 C 44.730469 64.890625 45.242188 64.894531 45.234375 62.851562 C 45.230469 61.335938 45.328125 61.183594 46.167969 61.394531 C 46.546875 61.492188 46.652344 61.648438 46.664062 62.15625 C 46.679688 62.824219 46.730469 62.765625 46.933594 61.84375 C 47.097656 61.082031 48.085938 61.132812 48.175781 61.90625 C 48.289062 62.867188 48.480469 63.003906 48.59375 62.199219 C 48.769531 60.949219 50.152344 61.011719 50.191406 62.273438 C 50.207031 62.824219 50.265625 62.738281 50.457031 61.855469 C 50.53125 61.511719 50.703125 61.3125 50.925781 61.3125 C 51.539062 61.3125 51.742188 61.746094 51.742188 63.03125 C 51.742188 64.035156 51.804688 64.277344 52.054688 64.277344 C 52.3125 64.277344 52.355469 64.050781 52.300781 62.882812 C 52.214844 61.058594 53.351562 60.433594 53.542969 62.199219 C 53.613281 62.84375 53.988281 62.84375 54.011719 62.199219 C 54.042969 61.425781 54.101562 61.3125 54.449219 61.3125 C 54.964844 61.3125 55.269531 61.703125 55.289062 62.390625 L 55.308594 62.992188 L 55.5 62.300781 C 55.828125 61.128906 57.035156 60.886719 57.035156 61.996094 C 57.035156 62.734375 57.394531 62.785156 57.464844 62.058594 C 57.507812 61.617188 57.640625 61.390625 57.890625 61.34375 C 58.464844 61.234375 58.605469 61.539062 58.628906 62.957031 C 58.636719 63.683594 58.726562 64.332031 58.820312 64.390625 C 59.011719 64.511719 59.039062 64.339844 59.070312 62.597656 L 59.09375 61.410156 L 59.78125 61.410156 C 60.429688 61.410156 60.464844 61.445312 60.476562 62.089844 C 60.488281 62.917969 60.953125 63.183594 60.957031 62.367188 C 60.964844 61.054688 61.988281 60.875 62.09375 62.164062 C 62.167969 63.050781 62.589844 63.066406 62.6875 62.1875 C 62.816406 61.015625 63.96875 60.972656 64.054688 62.132812 C 64.117188 62.960938 64.289062 63.136719 64.289062 62.371094 C 64.289062 61.710938 64.59375 61.3125 65.097656 61.3125 C 65.488281 61.3125 65.628906 61.667969 65.691406 62.84375 C 65.714844 63.304688 65.816406 63.683594 65.914062 63.683594 C 66.007812 63.683594 66.058594 63.195312 66.019531 62.597656 C 65.945312 61.378906 66.011719 61.308594 67.292969 61.3125 C 68.5625 61.320312 68.582031 61.355469 68.648438 64.085938 L 68.710938 66.550781 L 68.753906 63.832031 C 68.796875 61.132812 68.792969 61.113281 68.355469 61.109375 C 61.09375 61.039062 31.488281 61.042969 30.085938 61.113281 "/>
</g>
</svg>
