<?xml version="1.0" encoding="UTF-8"?>
<svg xmlns="http://www.w3.org/2000/svg" xmlns:xlink="http://www.w3.org/1999/xlink" width="80pt" height="80pt" viewBox="0 0 80 80" version="1.1">
<g id="surface1">
<path style=" stroke:none;fill-rule:nonzero;fill:rgb(0%,0%,0%);fill-opacity:1;" d="M 38.625 0.0390625 C 37.910156 0.0664062 36.40625 0.171875 36.21875 0.203125 C 36.167969 0.214844 35.929688 0.238281 35.6875 0.257812 C 34.800781 0.332031 32.183594 0.75 31.578125 0.90625 C 31.238281 1 30.625 1.140625 30.457031 1.167969 C 30.367188 1.179688 30.222656 1.214844 30.140625 1.246094 C 30.054688 1.269531 29.816406 1.335938 29.605469 1.390625 C 29.398438 1.441406 29.195312 1.5 29.15625 1.515625 C 29.117188 1.535156 28.890625 1.601562 28.660156 1.667969 C 28.429688 1.730469 28.199219 1.796875 28.148438 1.816406 C 28.09375 1.832031 27.832031 1.914062 27.558594 2 C 27.289062 2.085938 27.015625 2.179688 26.953125 2.203125 C 26.894531 2.230469 26.777344 2.269531 26.695312 2.296875 C 26.5625 2.339844 25.757812 2.632812 25.597656 2.699219 C 25.554688 2.71875 25.410156 2.777344 25.265625 2.832031 C 24.515625 3.128906 22.761719 3.894531 22.605469 4 C 22.574219 4.023438 22.511719 4.054688 22.457031 4.078125 C 22.148438 4.210938 20.835938 4.898438 20.292969 5.214844 C 20.101562 5.324219 19.851562 5.464844 19.742188 5.53125 C 19.632812 5.589844 19.515625 5.660156 19.484375 5.679688 C 19.429688 5.722656 19.3125 5.792969 19.175781 5.867188 C 19.132812 5.890625 19.050781 5.945312 18.984375 5.988281 C 18.921875 6.035156 18.859375 6.074219 18.84375 6.074219 C 18.832031 6.074219 18.691406 6.164062 18.53125 6.265625 C 18.371094 6.375 18.1875 6.496094 18.121094 6.539062 C 17.863281 6.699219 16.933594 7.347656 16.859375 7.410156 C 16.816406 7.453125 16.769531 7.480469 16.757812 7.480469 C 16.726562 7.480469 15.378906 8.5 14.9375 8.855469 C 14.695312 9.046875 13.914062 9.707031 13.707031 9.894531 C 13.648438 9.949219 13.503906 10.070312 13.394531 10.167969 C 12.957031 10.546875 12.355469 11.125 11.632812 11.851562 C 10.765625 12.730469 10.4375 13.085938 9.707031 13.917969 C 9.625 14.011719 9.527344 14.121094 9.484375 14.167969 C 9.445312 14.210938 9.367188 14.304688 9.316406 14.375 C 9.261719 14.445312 9.175781 14.546875 9.121094 14.609375 C 9.007812 14.738281 8.613281 15.242188 8.484375 15.417969 C 8.4375 15.484375 8.363281 15.578125 8.320312 15.628906 C 8.273438 15.679688 8.199219 15.78125 8.148438 15.851562 C 8.097656 15.921875 8.046875 15.988281 8.035156 16 C 8.027344 16.011719 7.886719 16.191406 7.730469 16.40625 C 7.574219 16.621094 7.421875 16.824219 7.390625 16.863281 C 7.363281 16.894531 7.339844 16.9375 7.339844 16.949219 C 7.339844 16.960938 7.25 17.085938 7.144531 17.234375 C 7.039062 17.382812 6.917969 17.554688 6.878906 17.617188 C 6.839844 17.683594 6.796875 17.742188 6.78125 17.742188 C 6.765625 17.742188 6.753906 17.757812 6.753906 17.78125 C 6.753906 17.804688 6.648438 17.972656 6.523438 18.160156 C 6.042969 18.882812 6.027344 18.914062 5.425781 19.917969 C 5.324219 20.089844 5.203125 20.308594 5.125 20.464844 C 5.082031 20.542969 5.039062 20.617188 5.027344 20.628906 C 4.949219 20.6875 3.484375 23.621094 3.484375 23.71875 C 3.484375 23.730469 3.425781 23.855469 3.359375 24.003906 C 3.289062 24.148438 3.222656 24.300781 3.207031 24.34375 C 3.191406 24.390625 3.144531 24.507812 3.097656 24.605469 C 3.050781 24.710938 3.007812 24.816406 3.007812 24.839844 C 3.007812 24.867188 2.996094 24.890625 2.976562 24.890625 C 2.957031 24.890625 2.933594 24.945312 2.921875 25.011719 C 2.90625 25.082031 2.855469 25.222656 2.808594 25.324219 C 2.757812 25.433594 2.714844 25.539062 2.714844 25.570312 C 2.714844 25.601562 2.699219 25.632812 2.683594 25.648438 C 2.664062 25.660156 2.636719 25.722656 2.621094 25.789062 C 2.609375 25.851562 2.574219 25.964844 2.539062 26.035156 C 2.511719 26.105469 2.472656 26.199219 2.457031 26.242188 C 2.351562 26.519531 2.269531 26.753906 2.195312 26.980469 C 2.148438 27.121094 2.097656 27.246094 2.085938 27.25 C 2.066406 27.257812 2.054688 27.292969 2.054688 27.324219 C 2.054688 27.390625 1.855469 28.066406 1.796875 28.203125 C 1.78125 28.246094 1.714844 28.460938 1.65625 28.679688 C 1.59375 28.894531 1.535156 29.09375 1.523438 29.109375 C 1.503906 29.144531 1.3125 29.882812 1.117188 30.683594 C 1.007812 31.121094 0.609375 33.085938 0.574219 33.351562 C 0.558594 33.453125 0.53125 33.617188 0.515625 33.722656 C 0.40625 34.269531 0.261719 35.523438 0.148438 36.816406 C 0.0546875 37.867188 -0.0078125 39.605469 0.015625 40.519531 C 0.03125 41.414062 0.125 43.125 0.164062 43.40625 C 0.175781 43.476562 0.210938 43.8125 0.238281 44.148438 C 0.292969 44.742188 0.445312 45.902344 0.511719 46.277344 C 0.53125 46.378906 0.558594 46.535156 0.570312 46.628906 C 0.660156 47.273438 1.0625 49.15625 1.304688 50.054688 C 1.359375 50.257812 1.421875 50.492188 1.4375 50.574219 C 1.484375 50.773438 1.757812 51.703125 1.796875 51.796875 C 1.855469 51.9375 2.054688 52.613281 2.054688 52.675781 C 2.054688 52.707031 2.066406 52.742188 2.085938 52.75 C 2.097656 52.75 2.167969 52.933594 2.242188 53.148438 C 2.316406 53.363281 2.421875 53.652344 2.476562 53.796875 C 2.527344 53.9375 2.589844 54.105469 2.609375 54.167969 C 2.628906 54.226562 2.65625 54.3125 2.675781 54.351562 C 2.863281 54.789062 2.9375 54.976562 2.9375 55.035156 C 2.9375 55.074219 2.945312 55.109375 2.964844 55.117188 C 2.980469 55.121094 3.039062 55.246094 3.097656 55.390625 C 3.15625 55.53125 3.257812 55.769531 3.324219 55.917969 C 3.394531 56.070312 3.449219 56.199219 3.449219 56.207031 C 3.449219 56.257812 4.300781 58.007812 4.636719 58.648438 C 5.019531 59.382812 5.148438 59.609375 5.195312 59.667969 C 5.222656 59.695312 5.257812 59.761719 5.28125 59.816406 C 5.304688 59.867188 5.359375 59.964844 5.402344 60.042969 C 5.449219 60.117188 5.535156 60.257812 5.59375 60.359375 C 5.929688 60.921875 6.367188 61.609375 6.394531 61.621094 C 6.40625 61.628906 6.421875 61.652344 6.421875 61.667969 C 6.421875 61.683594 6.496094 61.808594 6.585938 61.9375 C 6.679688 62.070312 6.753906 62.191406 6.753906 62.214844 C 6.753906 62.238281 6.765625 62.257812 6.78125 62.265625 C 6.796875 62.269531 6.863281 62.355469 6.929688 62.453125 C 6.996094 62.550781 7.101562 62.707031 7.167969 62.800781 C 7.230469 62.894531 7.304688 62.996094 7.320312 63.035156 C 7.34375 63.066406 7.363281 63.101562 7.375 63.109375 C 7.445312 63.179688 7.632812 63.449219 7.632812 63.476562 C 7.632812 63.496094 7.648438 63.519531 7.664062 63.527344 C 7.691406 63.535156 7.789062 63.660156 8.078125 64.054688 C 8.164062 64.179688 8.261719 64.300781 8.285156 64.324219 C 8.3125 64.355469 8.378906 64.4375 8.433594 64.511719 C 8.523438 64.636719 8.636719 64.785156 8.96875 65.199219 C 9.03125 65.28125 9.144531 65.414062 9.21875 65.496094 C 9.296875 65.582031 9.359375 65.660156 9.359375 65.671875 C 9.359375 65.679688 9.402344 65.742188 9.460938 65.800781 C 9.515625 65.863281 9.652344 66.015625 9.761719 66.144531 C 9.871094 66.269531 10.015625 66.429688 10.074219 66.496094 C 10.136719 66.5625 10.332031 66.78125 10.515625 66.984375 C 10.921875 67.4375 12.253906 68.78125 12.765625 69.257812 C 13.214844 69.675781 13.160156 69.625 13.503906 69.925781 C 13.65625 70.058594 13.789062 70.175781 13.796875 70.183594 C 13.808594 70.195312 13.921875 70.296875 14.054688 70.40625 C 14.1875 70.519531 14.300781 70.621094 14.3125 70.632812 C 14.355469 70.683594 15.292969 71.425781 15.867188 71.867188 C 16.511719 72.359375 16.679688 72.476562 17.558594 73.078125 C 17.84375 73.265625 18.082031 73.4375 18.085938 73.453125 C 18.089844 73.46875 18.113281 73.480469 18.132812 73.480469 C 18.152344 73.480469 18.316406 73.582031 18.5 73.703125 C 18.683594 73.824219 18.835938 73.925781 18.839844 73.925781 C 18.847656 73.925781 19 74.019531 19.179688 74.128906 C 19.359375 74.242188 19.605469 74.390625 19.726562 74.457031 C 19.847656 74.523438 20.050781 74.644531 20.183594 74.71875 C 20.398438 74.847656 20.640625 74.980469 21.210938 75.289062 C 21.671875 75.535156 22.523438 75.964844 22.566406 75.964844 C 22.585938 75.964844 22.605469 75.972656 22.605469 75.988281 C 22.605469 76.007812 22.683594 76.050781 22.78125 76.089844 C 22.878906 76.128906 23.105469 76.234375 23.285156 76.320312 C 23.46875 76.402344 23.796875 76.550781 24.019531 76.648438 C 24.398438 76.816406 24.539062 76.875 24.851562 77.015625 C 24.925781 77.046875 25 77.074219 25.015625 77.074219 C 25.042969 77.074219 25.332031 77.183594 25.632812 77.316406 C 25.695312 77.339844 25.875 77.40625 26.035156 77.464844 C 26.199219 77.519531 26.347656 77.578125 26.367188 77.59375 C 26.390625 77.605469 26.453125 77.628906 26.515625 77.644531 C 26.574219 77.660156 26.722656 77.710938 26.84375 77.757812 C 26.964844 77.804688 27.289062 77.914062 27.558594 78 C 27.832031 78.085938 28.09375 78.167969 28.148438 78.183594 C 28.199219 78.203125 28.335938 78.246094 28.457031 78.277344 C 28.578125 78.3125 28.746094 78.363281 28.824219 78.394531 C 28.910156 78.421875 29 78.445312 29.039062 78.445312 C 29.070312 78.445312 29.128906 78.460938 29.167969 78.480469 C 29.199219 78.5 29.367188 78.550781 29.542969 78.59375 C 29.714844 78.632812 29.960938 78.699219 30.089844 78.742188 C 30.222656 78.777344 30.578125 78.863281 30.878906 78.929688 C 31.183594 78.992188 31.5 79.070312 31.589844 79.097656 C 31.671875 79.125 31.777344 79.148438 31.8125 79.148438 C 31.847656 79.148438 32.136719 79.199219 32.445312 79.257812 C 33.3125 79.433594 34.949219 79.679688 35.667969 79.742188 C 35.902344 79.761719 36.148438 79.789062 36.21875 79.796875 C 36.558594 79.847656 37.894531 79.929688 38.917969 79.964844 C 40.058594 80.011719 41.765625 79.972656 42.714844 79.890625 C 42.929688 79.871094 43.324219 79.835938 43.597656 79.816406 C 44.273438 79.761719 44.652344 79.714844 45.558594 79.585938 C 45.984375 79.527344 46.449219 79.460938 46.585938 79.441406 C 46.730469 79.421875 46.960938 79.382812 47.101562 79.351562 C 47.242188 79.320312 47.582031 79.253906 47.851562 79.203125 C 48.125 79.152344 48.40625 79.097656 48.476562 79.074219 C 48.546875 79.054688 48.828125 78.988281 49.101562 78.929688 C 49.570312 78.820312 49.734375 78.78125 50.515625 78.574219 C 51.09375 78.417969 51.242188 78.378906 51.355469 78.332031 C 51.414062 78.3125 51.535156 78.277344 51.628906 78.257812 C 51.722656 78.238281 51.832031 78.207031 51.871094 78.1875 C 51.910156 78.171875 52.308594 78.035156 52.753906 77.890625 C 53.195312 77.746094 53.609375 77.605469 53.667969 77.574219 C 53.730469 77.546875 53.90625 77.484375 54.054688 77.433594 C 54.207031 77.382812 54.464844 77.28125 54.636719 77.207031 C 54.804688 77.136719 54.996094 77.066406 55.058594 77.050781 C 55.121094 77.039062 55.183594 77.019531 55.191406 77.003906 C 55.203125 76.988281 55.328125 76.929688 55.46875 76.875 C 55.609375 76.816406 55.847656 76.710938 55.992188 76.644531 C 56.144531 76.574219 56.273438 76.519531 56.277344 76.519531 C 56.300781 76.519531 56.757812 76.304688 57.121094 76.125 C 57.300781 76.035156 57.46875 75.964844 57.492188 75.964844 C 57.519531 75.964844 57.542969 75.945312 57.542969 75.925781 C 57.542969 75.902344 57.558594 75.890625 57.578125 75.890625 C 57.617188 75.890625 58.679688 75.371094 58.714844 75.332031 C 58.734375 75.316406 58.792969 75.28125 59.273438 75.035156 C 59.441406 74.945312 59.585938 74.863281 59.597656 74.847656 C 59.605469 74.835938 59.738281 74.757812 59.894531 74.679688 C 60.046875 74.597656 60.222656 74.496094 60.277344 74.460938 C 60.335938 74.421875 60.417969 74.371094 60.457031 74.34375 C 61.453125 73.761719 62.515625 73.058594 63.703125 72.183594 C 64.308594 71.746094 64.496094 71.601562 64.566406 71.535156 C 64.636719 71.46875 65.097656 71.109375 65.113281 71.109375 C 65.121094 71.109375 65.183594 71.0625 65.25 71 C 65.320312 70.941406 65.507812 70.78125 65.667969 70.644531 C 66.023438 70.347656 66.3125 70.09375 66.792969 69.660156 C 66.988281 69.476562 67.160156 69.332031 67.175781 69.332031 C 67.203125 69.332031 69.5625 66.949219 69.582031 66.894531 C 69.589844 66.875 69.734375 66.703125 69.910156 66.515625 C 70.082031 66.328125 70.253906 66.128906 70.292969 66.074219 C 70.332031 66.019531 70.394531 65.953125 70.421875 65.917969 C 70.453125 65.890625 70.550781 65.773438 70.640625 65.667969 C 70.734375 65.558594 70.878906 65.386719 70.964844 65.28125 C 71.054688 65.179688 71.175781 65.035156 71.234375 64.964844 C 71.292969 64.894531 71.339844 64.832031 71.339844 64.824219 C 71.339844 64.8125 71.425781 64.695312 71.71875 64.332031 C 71.878906 64.132812 72.667969 63.050781 72.824219 62.820312 C 72.929688 62.664062 73.085938 62.4375 73.167969 62.316406 C 73.25 62.191406 73.335938 62.066406 73.359375 62.035156 C 73.375 62.007812 73.464844 61.875 73.550781 61.742188 C 73.851562 61.285156 74.3125 60.53125 74.3125 60.484375 C 74.3125 60.464844 74.328125 60.445312 74.339844 60.445312 C 74.359375 60.445312 74.402344 60.378906 74.441406 60.296875 C 74.476562 60.214844 74.519531 60.148438 74.539062 60.148438 C 74.554688 60.148438 74.570312 60.128906 74.570312 60.109375 C 74.570312 60.089844 74.644531 59.945312 74.738281 59.785156 C 74.828125 59.628906 74.917969 59.472656 74.9375 59.441406 C 74.953125 59.402344 75.054688 59.222656 75.160156 59.035156 C 75.691406 58.070312 76.792969 55.730469 77.066406 54.980469 C 77.113281 54.859375 77.160156 54.742188 77.175781 54.722656 C 77.1875 54.699219 77.296875 54.425781 77.410156 54.109375 C 77.527344 53.796875 77.644531 53.480469 77.671875 53.414062 C 77.699219 53.347656 77.726562 53.265625 77.726562 53.230469 C 77.726562 53.195312 77.75 53.132812 77.78125 53.097656 C 77.808594 53.054688 77.835938 53 77.835938 52.96875 C 77.835938 52.941406 77.898438 52.734375 77.972656 52.507812 C 78.136719 52.035156 78.28125 51.5625 78.371094 51.242188 C 78.402344 51.117188 78.460938 50.917969 78.5 50.796875 C 78.578125 50.539062 78.917969 49.210938 78.992188 48.871094 C 79.015625 48.75 79.082031 48.441406 79.136719 48.183594 C 79.242188 47.714844 79.261719 47.601562 79.429688 46.609375 C 79.523438 46.082031 79.550781 45.867188 79.683594 44.816406 C 79.851562 43.4375 79.863281 43.335938 79.945312 41.609375 C 80.027344 39.984375 80.023438 39.851562 79.890625 37.296875 C 79.867188 36.898438 79.828125 36.382812 79.796875 36.148438 C 79.769531 35.914062 79.71875 35.496094 79.6875 35.222656 C 79.523438 33.816406 79.25 32.191406 79.046875 31.371094 C 79.027344 31.300781 78.910156 30.820312 78.785156 30.316406 C 78.660156 29.804688 78.527344 29.296875 78.496094 29.183594 C 78.460938 29.074219 78.402344 28.875 78.367188 28.742188 C 78.332031 28.605469 78.28125 28.441406 78.253906 28.371094 C 78.222656 28.300781 78.179688 28.148438 78.152344 28.035156 C 78.082031 27.769531 77.84375 27.046875 77.777344 26.914062 C 77.746094 26.855469 77.726562 26.785156 77.726562 26.757812 C 77.726562 26.730469 77.699219 26.652344 77.671875 26.585938 C 77.621094 26.472656 77.476562 26.074219 77.273438 25.519531 C 77.234375 25.40625 77.183594 25.296875 77.171875 25.273438 C 77.152344 25.25 77.105469 25.144531 77.066406 25.035156 C 76.835938 24.367188 75.761719 22.070312 75.175781 21 C 75.058594 20.785156 74.925781 20.542969 74.878906 20.464844 C 74.695312 20.113281 74.554688 19.871094 74.527344 19.851562 C 74.515625 19.839844 74.464844 19.757812 74.417969 19.671875 C 74.371094 19.582031 74.316406 19.480469 74.292969 19.449219 C 74.273438 19.414062 74.214844 19.320312 74.167969 19.242188 C 73.972656 18.917969 73.816406 18.671875 73.609375 18.363281 C 73.488281 18.183594 73.394531 18.027344 73.394531 18.003906 C 73.394531 17.984375 73.378906 17.964844 73.363281 17.957031 C 73.351562 17.949219 73.269531 17.84375 73.1875 17.722656 C 72.867188 17.238281 72.441406 16.625 72.402344 16.59375 C 72.394531 16.582031 72.277344 16.421875 72.148438 16.242188 C 72.019531 16.054688 71.890625 15.886719 71.863281 15.859375 C 71.8125 15.804688 71.417969 15.285156 71.359375 15.195312 C 71.339844 15.164062 71.289062 15.101562 71.246094 15.054688 C 71.160156 14.960938 70.945312 14.703125 70.65625 14.351562 C 70.539062 14.207031 70.421875 14.078125 70.394531 14.0625 C 70.371094 14.046875 70.347656 14.019531 70.347656 14 C 70.347656 13.980469 70.3125 13.925781 70.269531 13.882812 C 70.054688 13.660156 69.597656 13.136719 69.582031 13.105469 C 69.566406 13.054688 67.203125 10.667969 67.175781 10.667969 C 67.164062 10.667969 67.082031 10.605469 67 10.527344 C 66.515625 10.089844 66.347656 9.933594 66.253906 9.855469 C 66.195312 9.804688 66 9.636719 65.820312 9.484375 C 65.644531 9.328125 65.425781 9.148438 65.335938 9.082031 C 65.246094 9.011719 65.175781 8.941406 65.175781 8.921875 C 65.175781 8.902344 65.15625 8.890625 65.136719 8.890625 C 65.105469 8.890625 64.652344 8.550781 64.585938 8.480469 C 64.566406 8.457031 63.996094 8.03125 63.496094 7.664062 C 62.722656 7.09375 61.757812 6.445312 60.996094 5.976562 C 60.433594 5.636719 60.464844 5.660156 60.21875 5.515625 C 59.484375 5.089844 59.339844 5.003906 59.175781 4.917969 C 58.863281 4.753906 58.734375 4.683594 58.714844 4.667969 C 58.679688 4.628906 58.210938 4.40625 58.171875 4.40625 C 58.152344 4.40625 58.128906 4.394531 58.121094 4.378906 C 58.109375 4.351562 57.910156 4.25 57.132812 3.878906 C 56.191406 3.425781 54.871094 2.867188 54.042969 2.566406 C 53.898438 2.515625 53.730469 2.453125 53.667969 2.425781 C 53.609375 2.394531 53.195312 2.253906 52.753906 2.109375 C 52.308594 1.964844 51.910156 1.828125 51.871094 1.816406 C 51.832031 1.796875 51.730469 1.765625 51.652344 1.75 C 51.570312 1.726562 51.414062 1.679688 51.304688 1.648438 C 51.097656 1.589844 50.867188 1.527344 50.148438 1.328125 C 49.925781 1.269531 49.484375 1.164062 49.175781 1.09375 C 48.863281 1.019531 48.546875 0.945312 48.476562 0.925781 C 48.40625 0.902344 48.167969 0.855469 47.945312 0.8125 C 47.726562 0.765625 47.425781 0.710938 47.285156 0.679688 C 46.789062 0.585938 44.527344 0.261719 44.035156 0.222656 C 43.765625 0.199219 43.367188 0.164062 43.15625 0.144531 C 42.480469 0.0859375 40.554688 0 39.945312 0.0078125 C 39.621094 0.0117188 39.027344 0.0273438 38.625 0.0390625 Z M 41.980469 2.222656 C 43.058594 2.277344 44.914062 2.457031 45.449219 2.554688 C 45.550781 2.574219 45.914062 2.632812 46.257812 2.683594 C 46.601562 2.742188 46.964844 2.800781 47.0625 2.820312 C 47.167969 2.84375 47.320312 2.875 47.414062 2.894531 C 47.503906 2.90625 47.695312 2.949219 47.835938 2.976562 C 49.515625 3.351562 49.550781 3.363281 50.679688 3.699219 C 50.890625 3.765625 51.203125 3.855469 51.375 3.902344 C 51.664062 3.984375 51.820312 4.035156 52.019531 4.113281 C 52.058594 4.128906 52.257812 4.195312 52.457031 4.261719 C 52.660156 4.332031 52.828125 4.398438 52.835938 4.414062 C 52.84375 4.433594 52.878906 4.445312 52.914062 4.445312 C 52.949219 4.445312 53.136719 4.503906 53.324219 4.578125 C 53.515625 4.648438 53.828125 4.765625 54.019531 4.835938 C 54.210938 4.910156 54.382812 4.980469 54.402344 4.996094 C 54.421875 5.015625 54.578125 5.082031 54.753906 5.148438 C 54.925781 5.210938 55.082031 5.277344 55.101562 5.296875 C 55.121094 5.3125 55.179688 5.335938 55.226562 5.351562 C 55.273438 5.367188 55.453125 5.445312 55.628906 5.527344 C 55.800781 5.605469 56.039062 5.714844 56.15625 5.765625 C 56.273438 5.820312 56.367188 5.878906 56.367188 5.894531 C 56.367188 5.910156 56.394531 5.925781 56.429688 5.925781 C 56.503906 5.925781 57.519531 6.4375 57.535156 6.484375 C 57.542969 6.503906 57.570312 6.519531 57.601562 6.519531 C 57.667969 6.519531 58.105469 6.746094 58.121094 6.785156 C 58.128906 6.800781 58.152344 6.816406 58.167969 6.816406 C 58.234375 6.816406 59.511719 7.5625 60.359375 8.101562 C 60.496094 8.183594 60.695312 8.308594 60.800781 8.371094 C 60.902344 8.433594 61.011719 8.507812 61.039062 8.53125 C 61.0625 8.554688 61.253906 8.6875 61.46875 8.832031 C 61.824219 9.070312 62.078125 9.25 62.605469 9.644531 C 62.714844 9.730469 62.828125 9.820312 62.855469 9.839844 C 62.878906 9.867188 62.917969 9.890625 62.929688 9.890625 C 62.941406 9.890625 62.996094 9.925781 63.046875 9.96875 C 63.097656 10.019531 63.195312 10.101562 63.273438 10.15625 C 63.347656 10.210938 63.425781 10.277344 63.457031 10.304688 C 63.484375 10.328125 63.609375 10.433594 63.742188 10.535156 C 64.054688 10.78125 64.109375 10.820312 64.179688 10.890625 C 64.210938 10.917969 64.300781 10.988281 64.375 11.042969 C 64.449219 11.101562 64.527344 11.167969 64.558594 11.191406 C 64.582031 11.21875 64.730469 11.347656 64.878906 11.480469 C 65.03125 11.613281 65.1875 11.753906 65.234375 11.796875 C 65.273438 11.835938 65.414062 11.964844 65.542969 12.074219 C 65.757812 12.257812 66.28125 12.765625 66.84375 13.320312 C 67.242188 13.722656 67.976562 14.496094 68.183594 14.738281 C 68.292969 14.871094 68.417969 15.011719 68.457031 15.054688 C 68.5 15.097656 68.636719 15.253906 68.769531 15.40625 C 68.898438 15.558594 69.015625 15.691406 69.027344 15.703125 C 69.054688 15.726562 69.367188 16.113281 69.523438 16.316406 C 69.625 16.449219 70.042969 16.980469 70.207031 17.183594 C 70.246094 17.238281 70.308594 17.320312 70.339844 17.378906 C 70.375 17.4375 70.414062 17.480469 70.429688 17.480469 C 70.445312 17.480469 70.457031 17.507812 70.457031 17.535156 C 70.457031 17.566406 70.472656 17.59375 70.492188 17.59375 C 70.507812 17.59375 70.570312 17.664062 70.628906 17.75 C 70.6875 17.835938 70.824219 18.035156 70.9375 18.1875 C 71.054688 18.34375 71.214844 18.570312 71.292969 18.6875 C 71.371094 18.8125 71.484375 18.972656 71.535156 19.054688 C 71.6875 19.28125 71.695312 19.296875 71.875 19.574219 C 71.96875 19.714844 72.089844 19.90625 72.140625 20 C 72.191406 20.09375 72.246094 20.175781 72.257812 20.183594 C 72.28125 20.207031 72.734375 20.960938 72.734375 20.976562 C 72.734375 20.984375 72.796875 21.101562 72.875 21.226562 C 72.949219 21.355469 73.074219 21.574219 73.148438 21.710938 C 73.671875 22.6875 73.6875 22.714844 73.6875 22.765625 C 73.6875 22.789062 73.703125 22.816406 73.722656 22.820312 C 73.757812 22.835938 73.980469 23.273438 73.980469 23.332031 C 73.980469 23.355469 74.003906 23.398438 74.03125 23.425781 C 74.058594 23.453125 74.128906 23.589844 74.1875 23.730469 C 74.242188 23.867188 74.300781 23.988281 74.3125 24 C 74.324219 24.011719 74.355469 24.078125 74.386719 24.148438 C 74.414062 24.21875 74.523438 24.464844 74.632812 24.699219 C 74.738281 24.929688 74.824219 25.136719 74.824219 25.15625 C 74.824219 25.175781 74.847656 25.238281 74.878906 25.289062 C 74.964844 25.457031 75.066406 25.703125 75.261719 26.222656 C 75.367188 26.496094 75.46875 26.753906 75.484375 26.796875 C 75.503906 26.835938 75.570312 27.019531 75.632812 27.203125 C 75.695312 27.386719 75.761719 27.570312 75.78125 27.609375 C 75.796875 27.652344 75.863281 27.851562 75.929688 28.054688 C 75.992188 28.257812 76.058594 28.460938 76.078125 28.5 C 76.089844 28.539062 76.152344 28.722656 76.203125 28.90625 C 76.253906 29.089844 76.328125 29.339844 76.367188 29.464844 C 76.433594 29.664062 76.546875 30.089844 76.742188 30.851562 C 76.882812 31.425781 77.058594 32.210938 77.15625 32.757812 C 77.1875 32.941406 77.238281 33.207031 77.265625 33.351562 C 77.542969 34.742188 77.796875 37.171875 77.796875 38.378906 L 77.796875 38.742188 L 70.84375 38.742188 C 64.6875 38.742188 63.890625 38.734375 63.890625 38.683594 C 63.890625 38.65625 63.910156 38.628906 63.9375 38.628906 C 63.960938 38.628906 64.042969 38.570312 64.121094 38.5 C 64.199219 38.429688 64.273438 38.371094 64.289062 38.371094 C 64.363281 38.371094 65.285156 37.414062 65.429688 37.183594 C 65.460938 37.140625 65.503906 37.082031 65.527344 37.058594 C 65.609375 36.96875 65.867188 36.5625 65.972656 36.351562 C 66.035156 36.230469 66.195312 35.832031 66.328125 35.46875 C 66.460938 35.105469 66.636719 34.683594 66.714844 34.53125 L 66.863281 34.25 L 66.863281 33.011719 C 66.863281 31.867188 66.859375 31.761719 66.796875 31.675781 C 66.6875 31.515625 66.582031 31.261719 66.476562 30.90625 C 66.367188 30.539062 66.339844 30.476562 66.152344 30.074219 C 66.015625 29.785156 65.980469 29.726562 65.847656 29.53125 C 65.796875 29.464844 65.761719 29.394531 65.761719 29.375 C 65.761719 29.351562 65.746094 29.332031 65.730469 29.332031 C 65.71875 29.332031 65.671875 29.285156 65.640625 29.222656 C 65.605469 29.164062 65.554688 29.09375 65.53125 29.066406 C 65.503906 29.039062 65.441406 28.960938 65.390625 28.890625 C 65.25 28.699219 64.613281 28.046875 64.3125 27.789062 C 63.96875 27.488281 63.460938 27.152344 63.082031 26.964844 C 62.910156 26.882812 62.742188 26.796875 62.707031 26.777344 C 62.671875 26.753906 62.617188 26.742188 62.585938 26.742188 C 62.558594 26.742188 62.53125 26.730469 62.53125 26.710938 C 62.53125 26.695312 62.460938 26.667969 62.378906 26.644531 C 62.289062 26.621094 62.03125 26.550781 61.796875 26.488281 C 61.566406 26.425781 61.203125 26.355469 60.996094 26.335938 C 60.3125 26.265625 59.394531 26.296875 58.972656 26.40625 C 58.902344 26.425781 58.695312 26.472656 58.515625 26.523438 C 58.203125 26.597656 57.734375 26.753906 57.484375 26.867188 C 57.222656 26.988281 56.691406 27.265625 56.660156 27.300781 C 56.648438 27.3125 56.582031 27.351562 56.515625 27.394531 C 56.367188 27.472656 56.40625 27.445312 55.976562 27.777344 C 55.6875 28 54.898438 28.75 54.898438 28.804688 C 54.898438 28.816406 54.8125 28.941406 54.703125 29.089844 C 54.054688 29.960938 53.699219 30.832031 53.503906 32.035156 C 53.363281 32.875 53.433594 34.042969 53.671875 34.925781 C 53.703125 35.035156 53.742188 35.164062 53.757812 35.203125 C 53.777344 35.246094 53.835938 35.402344 53.890625 35.554688 C 54.085938 36.085938 54.457031 36.75 54.816406 37.203125 C 55.113281 37.574219 55.71875 38.167969 56.066406 38.425781 C 56.230469 38.546875 56.367188 38.671875 56.367188 38.695312 C 56.367188 38.734375 55.117188 38.742188 50.128906 38.742188 C 46.695312 38.742188 43.890625 38.726562 43.890625 38.710938 C 43.890625 38.675781 44.203125 38.519531 44.273438 38.519531 C 44.304688 38.519531 44.332031 38.503906 44.332031 38.488281 C 44.332031 38.46875 44.394531 38.425781 44.464844 38.386719 C 44.542969 38.347656 44.621094 38.300781 44.640625 38.285156 C 44.660156 38.269531 44.792969 38.179688 44.929688 38.09375 C 45.480469 37.726562 46.152344 37.015625 46.527344 36.40625 C 46.695312 36.140625 46.976562 35.582031 47.058594 35.351562 C 47.085938 35.269531 47.144531 35.117188 47.183594 35.019531 C 47.367188 34.554688 47.507812 33.480469 47.46875 32.851562 C 47.4375 32.394531 47.289062 31.605469 47.1875 31.375 C 47.152344 31.285156 47.121094 31.199219 47.121094 31.179688 C 47.121094 31.125 46.824219 30.511719 46.691406 30.277344 C 46.371094 29.734375 45.675781 28.941406 45.230469 28.609375 C 45.148438 28.546875 45.074219 28.492188 45.0625 28.480469 C 45.054688 28.46875 44.953125 28.402344 44.84375 28.332031 C 44.734375 28.261719 44.636719 28.195312 44.625 28.183594 C 44.574219 28.128906 43.867188 27.804688 43.542969 27.683594 C 43.125 27.535156 42.824219 27.464844 42.273438 27.390625 C 41.589844 27.292969 41.128906 27.320312 40.257812 27.503906 C 39.421875 27.679688 38.484375 28.175781 37.78125 28.816406 C 37.554688 29.019531 37.222656 29.367188 37.113281 29.507812 C 36.875 29.820312 36.695312 30.082031 36.582031 30.277344 C 36.515625 30.398438 36.449219 30.503906 36.433594 30.511719 C 36.417969 30.519531 36.402344 30.539062 36.402344 30.5625 C 36.402344 30.585938 36.332031 30.777344 36.242188 30.996094 C 36.03125 31.519531 35.980469 31.679688 35.886719 32.183594 C 35.789062 32.683594 35.773438 33.578125 35.847656 34.035156 C 35.972656 34.785156 36.222656 35.519531 36.539062 36.082031 C 36.625 36.242188 36.695312 36.386719 36.695312 36.402344 C 36.695312 36.421875 36.710938 36.445312 36.730469 36.453125 C 36.746094 36.457031 36.863281 36.601562 36.988281 36.765625 C 37.269531 37.148438 37.734375 37.621094 38.101562 37.898438 C 38.253906 38.015625 38.402344 38.132812 38.429688 38.160156 C 38.488281 38.210938 38.613281 38.28125 39.058594 38.507812 C 39.234375 38.597656 39.375 38.6875 39.375 38.707031 C 39.375 38.726562 37.339844 38.742188 34.164062 38.742188 L 28.953125 38.742188 L 28.726562 38.421875 C 28.597656 38.246094 28.476562 38.082031 28.457031 38.058594 C 28.4375 38.035156 28.257812 37.820312 28.058594 37.574219 C 27.628906 37.050781 26.917969 36.328125 26.632812 36.128906 C 26.601562 36.105469 26.480469 36.027344 26.363281 35.945312 C 26.246094 35.863281 26.140625 35.789062 26.128906 35.777344 C 26.117188 35.765625 26.046875 35.726562 25.972656 35.683594 C 25.898438 35.644531 25.835938 35.601562 25.835938 35.589844 C 25.835938 35.574219 25.796875 35.554688 25.753906 35.542969 C 25.707031 35.535156 25.53125 35.464844 25.359375 35.394531 C 24.800781 35.152344 23.84375 34.972656 23.320312 35.015625 C 22.597656 35.070312 21.601562 35.21875 21.484375 35.289062 C 21.46875 35.304688 21.417969 35.320312 21.375 35.320312 C 21.269531 35.339844 20.585938 35.546875 20.382812 35.625 C 20.097656 35.738281 19.277344 35.953125 18.964844 36.003906 C 18.59375 36.058594 18.117188 36.035156 17.925781 35.945312 C 17.84375 35.902344 17.589844 35.679688 17.339844 35.425781 C 16.859375 34.9375 16.554688 34.703125 16.183594 34.539062 C 16.050781 34.484375 15.910156 34.425781 15.871094 34.40625 C 15.546875 34.261719 14.636719 34.171875 13.835938 34.195312 C 13.253906 34.214844 12.953125 34.25 12.074219 34.375 C 11.570312 34.445312 10.894531 34.6875 10.089844 35.085938 C 9.878906 35.191406 9.699219 35.289062 9.6875 35.300781 C 9.675781 35.3125 9.554688 35.382812 9.414062 35.464844 C 9.273438 35.539062 9.089844 35.648438 9.007812 35.703125 C 8.929688 35.757812 8.832031 35.816406 8.796875 35.824219 C 8.761719 35.839844 8.636719 35.917969 8.515625 36 C 8.394531 36.082031 8.277344 36.148438 8.261719 36.148438 C 8.238281 36.148438 8.21875 36.160156 8.21875 36.179688 C 8.21875 36.191406 8.125 36.261719 8.011719 36.328125 C 7.894531 36.398438 7.714844 36.523438 7.609375 36.601562 C 7.507812 36.679688 7.40625 36.742188 7.382812 36.742188 C 7.363281 36.742188 7.339844 36.753906 7.332031 36.769531 C 7.324219 36.789062 7.121094 36.941406 6.878906 37.105469 C 6.636719 37.273438 6.359375 37.46875 6.261719 37.539062 C 5.738281 37.910156 5.019531 38.4375 4.847656 38.570312 L 4.648438 38.722656 L 3.4375 38.734375 C 2.769531 38.738281 2.210938 38.730469 2.199219 38.714844 C 2.15625 38.675781 2.21875 37.386719 2.292969 36.703125 C 2.324219 36.429688 2.355469 36.085938 2.367188 35.945312 C 2.402344 35.535156 2.527344 34.566406 2.585938 34.242188 C 2.617188 34.078125 2.675781 33.71875 2.714844 33.445312 C 2.757812 33.171875 2.824219 32.804688 2.863281 32.628906 C 2.902344 32.457031 2.984375 32.0625 3.050781 31.757812 C 3.113281 31.453125 3.179688 31.171875 3.195312 31.128906 C 3.210938 31.089844 3.242188 30.980469 3.257812 30.890625 C 3.308594 30.640625 3.546875 29.742188 3.675781 29.316406 C 3.738281 29.109375 3.808594 28.871094 3.839844 28.777344 C 3.910156 28.535156 4.160156 27.777344 4.3125 27.351562 C 4.386719 27.148438 4.488281 26.867188 4.535156 26.730469 C 4.585938 26.59375 4.636719 26.449219 4.65625 26.414062 C 4.691406 26.355469 4.9375 25.722656 5.050781 25.4375 C 5.074219 25.359375 5.140625 25.210938 5.191406 25.105469 C 5.242188 25 5.285156 24.898438 5.285156 24.886719 C 5.285156 24.875 5.378906 24.65625 5.496094 24.402344 C 5.613281 24.152344 5.734375 23.890625 5.765625 23.820312 C 5.792969 23.757812 5.828125 23.703125 5.84375 23.703125 C 5.859375 23.703125 5.871094 23.679688 5.871094 23.648438 C 5.871094 23.578125 6.089844 23.132812 6.132812 23.117188 C 6.152344 23.109375 6.164062 23.082031 6.164062 23.050781 C 6.164062 22.996094 6.375 22.550781 6.417969 22.519531 C 6.429688 22.507812 6.492188 22.398438 6.554688 22.277344 C 6.769531 21.855469 6.964844 21.492188 7.117188 21.246094 C 7.199219 21.109375 7.265625 20.992188 7.265625 20.980469 C 7.265625 20.945312 7.570312 20.464844 7.601562 20.453125 C 7.617188 20.445312 7.632812 20.417969 7.632812 20.394531 C 7.632812 20.371094 7.707031 20.234375 7.796875 20.097656 C 7.890625 19.957031 7.964844 19.835938 7.964844 19.832031 C 7.964844 19.796875 9.1875 17.996094 9.347656 17.796875 C 9.363281 17.773438 9.46875 17.632812 9.578125 17.480469 C 9.6875 17.328125 9.796875 17.179688 9.824219 17.148438 C 9.847656 17.117188 9.941406 17 10.027344 16.890625 C 10.417969 16.390625 10.75 15.972656 10.8125 15.898438 C 10.851562 15.855469 10.914062 15.78125 10.949219 15.734375 C 11.304688 15.304688 11.96875 14.558594 12.464844 14.039062 C 12.652344 13.84375 12.808594 13.675781 12.808594 13.660156 C 12.808594 13.640625 12.820312 13.628906 12.835938 13.628906 C 12.851562 13.628906 13.15625 13.339844 13.507812 12.988281 C 13.859375 12.640625 14.269531 12.246094 14.417969 12.109375 C 14.566406 11.976562 14.730469 11.828125 14.78125 11.777344 C 14.910156 11.65625 15.265625 11.351562 15.542969 11.128906 C 15.664062 11.03125 15.820312 10.894531 15.890625 10.824219 C 15.960938 10.757812 16.03125 10.703125 16.039062 10.703125 C 16.054688 10.703125 16.121094 10.652344 16.1875 10.59375 C 16.292969 10.496094 16.929688 9.996094 17.242188 9.761719 C 17.296875 9.722656 17.492188 9.578125 17.675781 9.4375 C 17.863281 9.300781 18.378906 8.941406 18.816406 8.644531 C 19.253906 8.347656 19.644531 8.089844 19.679688 8.0625 C 19.78125 7.992188 20.003906 7.863281 20.164062 7.773438 C 20.246094 7.730469 20.320312 7.679688 20.332031 7.667969 C 20.339844 7.65625 20.453125 7.585938 20.585938 7.515625 C 20.714844 7.445312 20.855469 7.359375 20.894531 7.324219 C 20.9375 7.289062 21 7.25 21.042969 7.238281 C 21.085938 7.222656 21.125 7.203125 21.136719 7.1875 C 21.15625 7.167969 21.421875 7.023438 21.78125 6.835938 C 21.902344 6.773438 22.007812 6.710938 22.019531 6.699219 C 22.035156 6.675781 23.875 5.742188 23.90625 5.742188 C 23.914062 5.742188 24.066406 5.671875 24.246094 5.589844 C 24.878906 5.289062 26.429688 4.652344 26.878906 4.503906 C 26.984375 4.46875 27.097656 4.425781 27.136719 4.40625 C 27.179688 4.390625 27.542969 4.261719 27.945312 4.128906 C 28.347656 4 28.777344 3.859375 28.898438 3.820312 C 29.019531 3.777344 29.285156 3.699219 29.484375 3.648438 C 29.6875 3.59375 29.976562 3.507812 30.128906 3.464844 C 30.277344 3.414062 30.535156 3.347656 30.695312 3.316406 C 30.859375 3.285156 31.042969 3.242188 31.101562 3.222656 C 31.355469 3.140625 33.023438 2.796875 33.632812 2.703125 C 33.898438 2.664062 34.203125 2.609375 34.3125 2.59375 C 34.640625 2.535156 35.632812 2.40625 35.949219 2.390625 C 36.105469 2.378906 36.378906 2.351562 36.550781 2.332031 C 38.046875 2.171875 40.089844 2.128906 41.980469 2.222656 Z M 60.621094 28.609375 C 61.6875 28.765625 62.570312 29.171875 63.242188 29.820312 C 64.007812 30.546875 64.417969 31.460938 64.515625 32.621094 C 64.558594 33.183594 64.480469 34 64.351562 34.316406 C 64.328125 34.375 64.269531 34.539062 64.222656 34.683594 C 63.996094 35.394531 63.515625 36.109375 62.902344 36.640625 C 62.738281 36.785156 62.347656 37.035156 62.285156 37.035156 C 62.261719 37.035156 62.238281 37.050781 62.238281 37.070312 C 62.238281 37.085938 62.121094 37.15625 61.972656 37.21875 C 60.902344 37.703125 59.425781 37.667969 58.285156 37.128906 C 57.886719 36.941406 57.378906 36.601562 57.101562 36.324219 C 56.847656 36.078125 56.476562 35.648438 56.476562 35.601562 C 56.476562 35.578125 56.460938 35.554688 56.445312 35.546875 C 56.398438 35.53125 56.167969 35.09375 56.019531 34.746094 C 55.75 34.109375 55.636719 33.074219 55.757812 32.371094 C 55.828125 31.953125 55.921875 31.605469 56.03125 31.363281 C 56.074219 31.265625 56.109375 31.175781 56.109375 31.152344 C 56.109375 31.132812 56.121094 31.109375 56.140625 31.105469 C 56.152344 31.097656 56.199219 31.027344 56.238281 30.945312 C 56.304688 30.8125 56.507812 30.488281 56.550781 30.445312 C 56.5625 30.433594 56.617188 30.359375 56.675781 30.277344 C 56.863281 30.023438 57.355469 29.5625 57.667969 29.355469 C 58.410156 28.859375 59.121094 28.621094 59.980469 28.582031 C 60.101562 28.574219 60.210938 28.566406 60.214844 28.5625 C 60.222656 28.558594 60.402344 28.582031 60.621094 28.609375 Z M 42.253906 29.722656 C 43.320312 29.945312 44.183594 30.515625 44.660156 31.316406 C 45.058594 31.976562 45.238281 32.8125 45.140625 33.5625 C 45 34.6875 44.464844 35.65625 43.65625 36.242188 C 43.226562 36.546875 42.878906 36.6875 42.257812 36.796875 C 41.570312 36.914062 40.714844 36.785156 40.054688 36.460938 C 39.875 36.367188 39.699219 36.265625 39.667969 36.230469 C 39.640625 36.195312 39.566406 36.140625 39.507812 36.109375 C 39.359375 36.035156 38.902344 35.566406 38.707031 35.289062 C 38.25 34.644531 37.988281 33.640625 38.089844 32.925781 C 38.164062 32.382812 38.269531 31.96875 38.355469 31.871094 C 38.371094 31.851562 38.386719 31.808594 38.386719 31.773438 C 38.386719 31.738281 38.394531 31.703125 38.414062 31.695312 C 38.429688 31.6875 38.488281 31.59375 38.546875 31.480469 C 39.011719 30.605469 39.953125 29.894531 40.917969 29.707031 C 41.191406 29.652344 41.960938 29.664062 42.253906 29.722656 Z M 7.484375 40.914062 C 7.484375 40.929688 7.398438 41.074219 7.292969 41.238281 C 6.992188 41.695312 6.957031 41.753906 6.996094 41.765625 C 7.011719 41.773438 7.140625 41.851562 7.277344 41.945312 C 7.417969 42.035156 7.542969 42.109375 7.558594 42.109375 C 7.574219 42.109375 7.675781 41.972656 7.785156 41.804688 C 7.894531 41.636719 7.988281 41.492188 8.003906 41.480469 C 8.015625 41.46875 8.097656 41.335938 8.191406 41.183594 L 8.355469 40.90625 L 21.746094 40.894531 L 35.140625 40.890625 L 35.242188 41.527344 C 35.304688 41.878906 35.394531 42.472656 35.449219 42.851562 C 35.507812 43.230469 35.597656 43.796875 35.648438 44.109375 C 35.699219 44.425781 35.75 44.75 35.761719 44.832031 C 35.777344 44.914062 35.824219 45.230469 35.871094 45.535156 C 35.917969 45.839844 35.992188 46.324219 36.035156 46.609375 C 36.082031 46.894531 36.148438 47.320312 36.1875 47.554688 C 36.226562 47.789062 36.300781 48.261719 36.347656 48.609375 C 36.398438 48.957031 36.480469 49.472656 36.53125 49.757812 C 36.582031 50.042969 36.636719 50.421875 36.660156 50.601562 C 36.679688 50.777344 36.710938 50.996094 36.730469 51.082031 C 36.761719 51.226562 36.816406 51.582031 36.976562 52.628906 C 37.003906 52.820312 37.035156 53.027344 37.046875 53.082031 C 37.085938 53.339844 37.179688 53.925781 37.210938 54.109375 C 37.230469 54.222656 37.25 54.40625 37.265625 54.519531 C 37.277344 54.628906 37.304688 54.796875 37.324219 54.890625 C 37.363281 55.089844 37.449219 55.625 37.542969 56.257812 C 37.578125 56.515625 37.632812 56.871094 37.667969 57.054688 C 37.71875 57.335938 37.863281 58.285156 37.925781 58.742188 C 37.9375 58.8125 37.984375 59.109375 38.03125 59.40625 C 38.085938 59.703125 38.136719 60.046875 38.148438 60.179688 L 38.171875 60.410156 L 37.960938 60.75 C 37.84375 60.941406 37.660156 61.222656 37.550781 61.382812 C 37.445312 61.539062 37.359375 61.679688 37.359375 61.691406 C 37.359375 61.703125 37.320312 61.765625 37.273438 61.828125 C 37.226562 61.894531 37.152344 62.003906 37.109375 62.078125 L 37.027344 62.214844 L 37.273438 62.378906 C 37.613281 62.605469 37.605469 62.605469 37.667969 62.539062 C 37.699219 62.511719 37.726562 62.476562 37.726562 62.464844 C 37.726562 62.453125 37.789062 62.347656 37.867188 62.230469 C 38.105469 61.871094 38.628906 61.058594 38.675781 60.96875 L 38.71875 60.890625 L 68.625 60.890625 L 68.824219 61.019531 C 68.9375 61.09375 69.054688 61.160156 69.082031 61.171875 C 69.136719 61.191406 69.28125 61.054688 69.285156 60.976562 C 69.285156 60.953125 69.308594 60.925781 69.339844 60.910156 C 69.441406 60.875 71.5 60.882812 71.515625 60.921875 C 71.527344 60.957031 71.429688 61.136719 71.375 61.183594 C 71.363281 61.195312 71.316406 61.261719 71.273438 61.335938 C 71.207031 61.445312 70.800781 62.007812 70.191406 62.828125 C 69.988281 63.101562 69.519531 63.683594 69.492188 63.695312 C 69.480469 63.703125 69.46875 63.734375 69.46875 63.757812 C 69.46875 63.785156 69.457031 63.816406 69.4375 63.820312 C 69.425781 63.824219 69.214844 64.066406 68.972656 64.351562 C 68.730469 64.636719 68.5 64.902344 68.457031 64.949219 C 68.417969 64.988281 68.292969 65.128906 68.183594 65.261719 C 67.695312 65.832031 66.128906 67.414062 65.542969 67.925781 C 65.414062 68.035156 65.226562 68.207031 65.121094 68.300781 C 64.945312 68.464844 64.53125 68.820312 64.210938 69.089844 C 64.132812 69.152344 64.039062 69.230469 64.003906 69.257812 C 63.96875 69.289062 63.847656 69.382812 63.746094 69.464844 C 63.644531 69.542969 63.496094 69.664062 63.421875 69.730469 C 63.347656 69.796875 63.230469 69.878906 63.164062 69.914062 C 63.042969 69.980469 63.039062 69.980469 62.851562 69.875 L 62.664062 69.769531 L 62.585938 69.863281 C 62.546875 69.914062 62.449219 70.066406 62.367188 70.199219 C 62.285156 70.335938 62.199219 70.476562 62.171875 70.511719 C 62.152344 70.542969 62.089844 70.632812 62.042969 70.703125 C 61.96875 70.820312 61.484375 71.191406 61.191406 71.355469 C 61.132812 71.390625 61.0625 71.441406 61.035156 71.464844 C 61.007812 71.496094 60.949219 71.535156 60.90625 71.5625 C 60.863281 71.585938 60.695312 71.6875 60.53125 71.792969 C 60.367188 71.894531 60.203125 72 60.164062 72.027344 C 60.125 72.046875 59.933594 72.167969 59.742188 72.289062 C 59.390625 72.511719 58.71875 72.898438 58.347656 73.097656 C 58.238281 73.15625 58.140625 73.214844 58.128906 73.226562 C 58.117188 73.242188 57.964844 73.324219 57.78125 73.417969 C 57.601562 73.507812 57.234375 73.691406 56.964844 73.828125 C 56.695312 73.964844 56.453125 74.074219 56.421875 74.074219 C 56.394531 74.074219 56.367188 74.089844 56.367188 74.105469 C 56.367188 74.144531 56.179688 74.234375 56.152344 74.203125 C 56.128906 74.179688 56.199219 74.050781 56.539062 73.523438 C 56.691406 73.292969 56.820312 73.082031 56.832031 73.050781 C 56.851562 73 56.765625 72.890625 56.707031 72.890625 C 56.691406 72.890625 56.585938 72.820312 56.476562 72.746094 L 56.273438 72.597656 L 56.011719 73.011719 C 55.863281 73.242188 55.726562 73.453125 55.707031 73.480469 C 55.597656 73.644531 55.1875 74.273438 55.132812 74.367188 C 55.070312 74.472656 55.070312 74.480469 55.136719 74.554688 C 55.207031 74.632812 55.207031 74.636719 55.136719 74.679688 C 55.097656 74.703125 54.933594 74.773438 54.769531 74.839844 C 54.609375 74.90625 54.449219 74.976562 54.410156 75 C 54.375 75.023438 54.195312 75.097656 54.007812 75.167969 C 53.820312 75.234375 53.515625 75.351562 53.324219 75.421875 C 53.136719 75.496094 52.949219 75.554688 52.914062 75.554688 C 52.875 75.554688 52.84375 75.570312 52.84375 75.589844 C 52.84375 75.605469 52.808594 75.628906 52.761719 75.640625 C 52.683594 75.660156 52.019531 75.882812 51.796875 75.964844 C 51.738281 75.988281 51.546875 76.042969 51.375 76.09375 C 51.203125 76.140625 50.957031 76.21875 50.824219 76.257812 C 50.695312 76.304688 50.441406 76.378906 50.257812 76.429688 C 48.972656 76.78125 49.027344 76.765625 49.027344 76.703125 C 49.027344 76.671875 49.242188 76.335938 49.289062 76.296875 C 49.3125 76.273438 49.394531 76.121094 49.394531 76.097656 C 49.394531 76.085938 49.269531 75.992188 49.117188 75.890625 C 48.824219 75.695312 48.769531 75.6875 48.699219 75.851562 C 48.691406 75.882812 48.515625 76.152344 48.320312 76.453125 L 47.960938 76.996094 L 47.777344 77.023438 C 47.675781 77.035156 47.585938 77.0625 47.574219 77.078125 C 47.5625 77.097656 47.511719 77.109375 47.457031 77.109375 C 47.402344 77.109375 47.25 77.136719 47.121094 77.167969 C 46.988281 77.195312 46.601562 77.261719 46.257812 77.316406 C 45.914062 77.367188 45.542969 77.425781 45.429688 77.445312 C 45.003906 77.523438 44.40625 77.585938 42.660156 77.742188 C 41.347656 77.855469 38.527344 77.847656 37.167969 77.722656 C 36.824219 77.691406 36.28125 77.640625 35.957031 77.609375 C 35.339844 77.554688 34.664062 77.46875 34.3125 77.40625 C 34.203125 77.386719 33.945312 77.34375 33.742188 77.316406 C 33.226562 77.242188 31.527344 76.894531 31.175781 76.796875 C 31.074219 76.765625 30.859375 76.71875 30.695312 76.683594 C 30.535156 76.652344 30.289062 76.585938 30.148438 76.535156 C 30.007812 76.492188 29.832031 76.441406 29.761719 76.425781 C 29.691406 76.410156 29.46875 76.347656 29.265625 76.289062 C 28.597656 76.089844 28.53125 76.066406 28.421875 76.035156 C 28.203125 75.972656 27.207031 75.625 27.09375 75.574219 C 27.03125 75.542969 26.964844 75.519531 26.945312 75.519531 C 26.933594 75.519531 26.785156 75.464844 26.625 75.402344 C 26.460938 75.339844 26.230469 75.25 26.109375 75.207031 C 25.667969 75.035156 25.230469 74.847656 25.199219 74.820312 C 25.171875 74.789062 25.359375 74.445312 25.457031 74.339844 C 25.484375 74.316406 25.53125 74.238281 25.5625 74.167969 C 25.613281 74.050781 25.613281 74.035156 25.566406 73.980469 C 25.535156 73.953125 25.496094 73.925781 25.484375 73.925781 C 25.472656 73.925781 25.410156 73.890625 25.347656 73.839844 C 25.078125 73.652344 24.996094 73.640625 24.929688 73.789062 C 24.855469 73.949219 24.472656 74.519531 24.449219 74.503906 C 24.386719 74.46875 23.917969 74.257812 23.902344 74.257812 C 23.867188 74.257812 22.152344 73.386719 21.761719 73.167969 C 21.546875 73.046875 21.304688 72.910156 21.222656 72.867188 C 21.050781 72.773438 20.875 72.660156 20.84375 72.628906 C 20.832031 72.617188 20.785156 72.589844 20.734375 72.566406 C 20.683594 72.539062 20.5625 72.46875 20.457031 72.410156 C 20.359375 72.347656 20.214844 72.261719 20.148438 72.222656 C 19.980469 72.125 19.996094 72.132812 19.164062 71.59375 C 18.957031 71.460938 18.792969 71.324219 18.789062 71.296875 C 18.789062 71.265625 18.855469 71.140625 18.9375 71.019531 C 19.015625 70.894531 19.203125 70.605469 19.355469 70.375 L 19.628906 69.953125 L 19.492188 69.855469 C 19.421875 69.804688 19.285156 69.710938 19.195312 69.652344 C 19.003906 69.53125 19.054688 69.492188 18.746094 69.980469 C 18.332031 70.636719 18.15625 70.890625 18.136719 70.890625 C 18.121094 70.890625 17.984375 70.792969 17.835938 70.679688 C 17.683594 70.5625 17.445312 70.386719 17.304688 70.285156 C 17.066406 70.113281 17.015625 70.074219 16.90625 69.980469 C 16.878906 69.960938 16.722656 69.832031 16.554688 69.703125 C 16.382812 69.574219 16.214844 69.441406 16.183594 69.410156 C 16.152344 69.378906 16.070312 69.308594 16 69.253906 C 15.929688 69.199219 15.835938 69.121094 15.789062 69.082031 C 15.738281 69.039062 15.632812 68.953125 15.550781 68.882812 C 15.320312 68.695312 14.890625 68.324219 14.785156 68.222656 C 14.730469 68.171875 14.550781 68.003906 14.382812 67.851562 C 14.027344 67.535156 13.136719 66.660156 13.136719 66.625 C 13.136719 66.613281 13.242188 66.441406 13.371094 66.242188 C 13.5 66.039062 13.601562 65.859375 13.59375 65.835938 C 13.585938 65.816406 13.480469 65.738281 13.359375 65.671875 C 13.238281 65.601562 13.136719 65.527344 13.136719 65.511719 C 13.136719 65.496094 13.105469 65.480469 13.0625 65.480469 C 13.011719 65.480469 12.941406 65.550781 12.84375 65.710938 C 12.578125 66.136719 12.617188 66.117188 12.410156 65.90625 C 12.109375 65.597656 11.34375 64.738281 10.972656 64.292969 C 10.941406 64.257812 10.882812 64.1875 10.84375 64.140625 C 10.675781 63.941406 10.136719 63.257812 9.980469 63.054688 C 9.890625 62.933594 9.804688 62.824219 9.792969 62.816406 C 9.785156 62.804688 9.6875 62.679688 9.585938 62.535156 C 9.484375 62.394531 9.382812 62.257812 9.363281 62.242188 C 9.351562 62.21875 9.265625 62.105469 9.183594 61.980469 C 9.097656 61.859375 8.976562 61.683594 8.914062 61.59375 C 8.761719 61.382812 7.964844 60.179688 7.964844 60.167969 C 7.964844 60.164062 7.890625 60.042969 7.796875 59.902344 C 7.707031 59.765625 7.632812 59.628906 7.632812 59.605469 C 7.632812 59.582031 7.617188 59.554688 7.601562 59.546875 C 7.570312 59.535156 7.265625 59.054688 7.265625 59.019531 C 7.265625 59.007812 7.199219 58.890625 7.117188 58.753906 C 6.964844 58.507812 6.769531 58.144531 6.554688 57.722656 C 6.492188 57.601562 6.429688 57.492188 6.414062 57.480469 C 6.378906 57.453125 6.164062 56.988281 6.164062 56.933594 C 6.164062 56.910156 6.152344 56.890625 6.136719 56.890625 C 6.109375 56.890625 5.980469 56.65625 5.980469 56.605469 C 5.980469 56.601562 6.023438 56.601562 6.070312 56.613281 C 6.144531 56.632812 6.167969 56.613281 6.222656 56.511719 C 6.257812 56.445312 6.328125 56.335938 6.371094 56.273438 C 6.417969 56.210938 6.457031 56.152344 6.457031 56.140625 C 6.457031 56.125 7.046875 55.210938 7.109375 55.128906 C 7.183594 55.035156 7.34375 54.769531 7.332031 54.761719 C 7.324219 54.757812 7.261719 54.714844 7.191406 54.667969 C 7.121094 54.617188 7.058594 54.566406 7.046875 54.554688 C 7.035156 54.542969 6.957031 54.5 6.878906 54.453125 L 6.722656 54.371094 L 6.527344 54.675781 C 6.175781 55.242188 6.074219 55.390625 6.046875 55.398438 C 6.03125 55.40625 6.019531 55.429688 6.019531 55.449219 C 6.019531 55.464844 5.960938 55.566406 5.890625 55.671875 C 5.820312 55.773438 5.761719 55.875 5.761719 55.894531 C 5.761719 55.910156 5.726562 55.925781 5.6875 55.925781 C 5.648438 55.925781 5.613281 55.902344 5.613281 55.878906 C 5.613281 55.847656 5.542969 55.675781 5.449219 55.488281 C 5.359375 55.304688 5.285156 55.128906 5.285156 55.101562 C 5.285156 55.074219 5.269531 55.035156 5.25 55.019531 C 5.234375 54.996094 5.15625 54.828125 5.082031 54.648438 C 4.800781 53.957031 4.617188 53.492188 4.53125 53.257812 C 4.484375 53.125 4.386719 52.851562 4.3125 52.648438 C 4.160156 52.226562 3.910156 51.46875 3.835938 51.222656 C 3.808594 51.128906 3.742188 50.914062 3.691406 50.742188 C 3.582031 50.382812 3.308594 49.359375 3.257812 49.109375 C 3.242188 49.019531 3.210938 48.910156 3.195312 48.871094 C 3.179688 48.828125 3.113281 48.542969 3.050781 48.242188 C 2.984375 47.933594 2.902344 47.542969 2.863281 47.371094 C 2.824219 47.195312 2.757812 46.828125 2.714844 46.554688 C 2.675781 46.28125 2.617188 45.921875 2.585938 45.757812 C 2.523438 45.402344 2.398438 44.425781 2.367188 44.035156 C 2.355469 43.886719 2.332031 43.632812 2.308594 43.480469 C 2.261719 43.089844 2.164062 41.601562 2.164062 41.210938 L 2.164062 40.890625 L 4.824219 40.890625 C 6.289062 40.890625 7.484375 40.898438 7.484375 40.914062 Z M 43.121094 45.203125 L 43.121094 49.523438 L 43.480469 49.511719 L 43.835938 49.5 L 43.847656 45.191406 L 43.851562 40.890625 L 52.109375 40.890625 L 52.117188 48.804688 L 52.128906 56.722656 L 52.488281 56.734375 L 52.84375 56.746094 L 52.84375 40.890625 L 61.652344 40.890625 L 61.652344 49.335938 L 62.011719 49.324219 C 62.292969 49.320312 62.367188 49.304688 62.371094 49.257812 C 62.375 49.230469 62.378906 47.332031 62.382812 45.042969 L 62.386719 40.890625 L 77.835938 40.890625 L 77.835938 41.042969 C 77.835938 41.40625 77.726562 43.246094 77.667969 43.757812 C 77.433594 46.109375 76.941406 48.609375 76.273438 50.859375 C 76.085938 51.480469 75.832031 52.273438 75.78125 52.390625 C 75.761719 52.429688 75.714844 52.566406 75.671875 52.691406 C 75.601562 52.914062 75.558594 53.015625 75.464844 53.25 C 75.433594 53.3125 75.414062 53.375 75.414062 53.390625 C 75.414062 53.417969 75.113281 54.1875 75 54.445312 C 74.960938 54.535156 74.902344 54.664062 74.878906 54.730469 C 74.847656 54.792969 74.824219 54.851562 74.824219 54.863281 C 74.824219 54.875 74.738281 55.070312 74.632812 55.300781 C 74.523438 55.535156 74.414062 55.78125 74.386719 55.851562 C 74.355469 55.921875 74.324219 55.988281 74.3125 56 C 74.300781 56.011719 74.242188 56.132812 74.1875 56.269531 C 74.128906 56.410156 74.058594 56.546875 74.03125 56.574219 C 74.003906 56.601562 73.980469 56.640625 73.980469 56.660156 C 73.980469 56.703125 73.761719 57.160156 73.726562 57.183594 C 73.71875 57.195312 73.644531 57.328125 73.570312 57.480469 C 73.382812 57.867188 73.074219 58.4375 72.96875 58.601562 L 72.878906 58.742188 L 40.078125 58.742188 L 40.054688 58.617188 C 40.042969 58.554688 40.003906 58.273438 39.964844 58 C 39.921875 57.726562 39.867188 57.339844 39.835938 57.148438 C 39.734375 56.539062 39.605469 55.71875 39.472656 54.816406 C 39.398438 54.335938 39.292969 53.652344 39.234375 53.296875 C 39.175781 52.941406 39.105469 52.496094 39.082031 52.316406 C 39.0625 52.128906 39.03125 51.957031 39.019531 51.925781 C 39.007812 51.894531 38.992188 51.804688 38.984375 51.722656 C 38.976562 51.640625 38.9375 51.382812 38.894531 51.148438 C 38.851562 50.914062 38.808594 50.613281 38.789062 50.480469 C 38.773438 50.347656 38.726562 50.015625 38.683594 49.742188 C 38.636719 49.464844 38.578125 49.089844 38.550781 48.90625 C 38.519531 48.722656 38.449219 48.265625 38.390625 47.890625 C 38.328125 47.511719 38.253906 47.011719 38.222656 46.777344 C 38.191406 46.542969 38.152344 46.277344 38.128906 46.183594 C 38.109375 46.09375 38.050781 45.746094 38 45.40625 C 37.945312 45.070312 37.863281 44.542969 37.816406 44.242188 C 37.769531 43.933594 37.695312 43.445312 37.648438 43.148438 C 37.605469 42.851562 37.503906 42.238281 37.429688 41.777344 C 37.355469 41.320312 37.300781 40.933594 37.308594 40.914062 C 37.316406 40.898438 38.628906 40.890625 40.222656 40.890625 L 43.121094 40.890625 Z M 43.121094 45.203125 "/>
<path style=" stroke:none;fill-rule:nonzero;fill:rgb(0%,0%,0%);fill-opacity:1;" d="M 30.851562 8.117188 C 30.679688 8.300781 30.597656 8.507812 30.492188 9.019531 C 30.398438 9.460938 30.285156 10.371094 30.238281 11.035156 C 30.125 12.652344 29.941406 14.292969 29.867188 14.335938 C 29.820312 14.367188 29.65625 14.386719 28.714844 14.480469 C 27.414062 14.613281 27.257812 14.652344 26.507812 15.027344 L 26.019531 15.261719 L 26.019531 15.839844 L 26.175781 15.886719 C 26.261719 15.910156 26.363281 15.945312 26.402344 15.964844 C 26.480469 15.996094 27.367188 16.207031 28.054688 16.355469 C 28.277344 16.402344 28.609375 16.476562 28.789062 16.519531 C 30.035156 16.800781 33.117188 17.382812 33.890625 17.484375 C 34.050781 17.503906 34.292969 17.535156 34.429688 17.554688 C 34.566406 17.578125 34.796875 17.59375 34.945312 17.59375 L 35.21875 17.59375 L 35.3125 17.265625 C 35.402344 16.96875 35.449219 16.769531 35.46875 16.628906 C 35.472656 16.601562 35.484375 16.546875 35.496094 16.519531 C 35.507812 16.488281 35.527344 16.386719 35.542969 16.285156 C 35.5625 16.128906 35.574219 16.109375 35.644531 16.128906 C 35.6875 16.136719 35.847656 16.171875 36 16.199219 C 36.628906 16.328125 36.828125 16.382812 37.023438 16.453125 C 37.261719 16.539062 37.539062 16.722656 37.570312 16.808594 C 37.582031 16.839844 37.613281 16.894531 37.644531 16.925781 C 37.667969 16.960938 37.746094 17.121094 37.8125 17.285156 C 37.878906 17.449219 37.980469 17.679688 38.035156 17.800781 C 38.21875 18.199219 38.339844 18.464844 38.433594 18.667969 C 38.597656 19.039062 38.6875 19.242188 38.789062 19.464844 C 38.96875 19.847656 39.046875 20.042969 39.046875 20.097656 C 39.046875 20.125 39.0625 20.148438 39.074219 20.148438 C 39.089844 20.148438 39.125 20.210938 39.152344 20.285156 C 39.183594 20.363281 39.289062 20.605469 39.394531 20.832031 C 39.5 21.054688 39.648438 21.371094 39.71875 21.527344 C 39.789062 21.679688 39.914062 21.949219 39.996094 22.117188 C 40.253906 22.667969 40.445312 23.085938 40.613281 23.480469 C 40.703125 23.695312 40.84375 24.011719 40.921875 24.179688 C 41 24.347656 41.0625 24.496094 41.0625 24.507812 C 41.0625 24.550781 41.667969 25.800781 41.828125 26.082031 C 41.878906 26.179688 41.949219 26.265625 41.976562 26.277344 C 42.003906 26.289062 42.414062 26.308594 42.886719 26.320312 L 43.746094 26.34375 L 43.820312 26.484375 C 43.855469 26.5625 43.890625 26.648438 43.890625 26.679688 C 43.890625 26.746094 44.058594 26.898438 44.238281 26.992188 C 44.320312 27.035156 44.589844 27.167969 44.84375 27.289062 C 45.242188 27.476562 46.03125 27.96875 46.1875 28.125 C 46.214844 28.15625 46.320312 28.246094 46.414062 28.320312 C 46.703125 28.558594 47.105469 29 47.230469 29.21875 C 47.257812 29.269531 47.296875 29.320312 47.304688 29.332031 C 47.378906 29.394531 47.648438 29.84375 47.773438 30.109375 C 47.976562 30.5625 48.023438 30.679688 48.144531 31.09375 C 48.34375 31.808594 48.386719 32.144531 48.386719 33.214844 C 48.386719 34.160156 48.390625 34.1875 48.457031 34.207031 C 48.5 34.214844 49.488281 34.21875 50.660156 34.214844 C 52.382812 34.207031 52.785156 34.195312 52.777344 34.15625 C 52.738281 33.941406 52.660156 32.984375 52.660156 32.652344 C 52.660156 32.304688 52.730469 31.476562 52.789062 31.148438 C 52.839844 30.859375 52.964844 30.363281 53.066406 30.0625 C 53.183594 29.730469 53.460938 29.074219 53.507812 29.035156 C 53.519531 29.027344 53.542969 28.984375 53.554688 28.941406 C 53.566406 28.898438 53.605469 28.832031 53.644531 28.792969 C 53.675781 28.75 53.742188 28.648438 53.789062 28.558594 C 53.945312 28.277344 54.351562 27.769531 54.753906 27.371094 C 55.121094 26.996094 55.914062 26.371094 56.023438 26.371094 C 56.050781 26.371094 56.074219 26.355469 56.074219 26.339844 C 56.074219 26.320312 56.136719 26.277344 56.210938 26.238281 C 56.285156 26.199219 56.355469 26.160156 56.367188 26.148438 C 56.394531 26.117188 57.132812 25.777344 57.167969 25.777344 C 57.183594 25.777344 57.269531 25.742188 57.363281 25.699219 C 57.546875 25.605469 58.164062 25.4375 58.652344 25.34375 C 59.144531 25.25 60.617188 25.25 61.082031 25.34375 C 61.804688 25.488281 62.078125 25.570312 62.652344 25.800781 C 62.976562 25.925781 63.667969 26.277344 63.707031 26.332031 C 63.71875 26.347656 63.765625 26.382812 63.816406 26.40625 C 63.925781 26.464844 64.445312 26.859375 64.621094 27.019531 C 65.058594 27.414062 65.347656 27.730469 65.777344 28.285156 C 65.953125 28.515625 66.113281 28.703125 66.132812 28.703125 C 66.179688 28.703125 66.171875 27.214844 66.125 26.742188 C 66.03125 25.78125 65.792969 25.054688 65.335938 24.296875 C 64.722656 23.285156 63.726562 22.492188 62.625 22.136719 C 62.460938 22.085938 62.238281 22.015625 62.128906 21.980469 C 61.957031 21.925781 61.789062 21.914062 60.984375 21.921875 C 60.273438 21.929688 60.035156 21.917969 60.035156 21.886719 C 60.035156 21.855469 60.027344 21.851562 59.988281 21.886719 C 59.945312 21.917969 59.933594 21.132812 59.917969 17.046875 C 59.90625 13.535156 59.886719 12.167969 59.855469 12.15625 C 59.835938 12.148438 59.816406 12.117188 59.816406 12.085938 C 59.816406 11.917969 59.417969 11.59375 59.136719 11.535156 C 59.058594 11.519531 56.804688 11.511719 54.128906 11.515625 C 49.820312 11.523438 49.238281 11.53125 49.007812 11.582031 C 48.488281 11.703125 48.308594 11.941406 48.035156 12.851562 C 47.972656 13.066406 47.910156 13.273438 47.890625 13.316406 C 47.871094 13.355469 47.84375 13.449219 47.820312 13.519531 C 47.800781 13.589844 47.679688 13.957031 47.546875 14.332031 C 47.273438 15.128906 47.304688 15.035156 47.15625 15.480469 C 47.09375 15.675781 47.03125 15.859375 47.019531 15.890625 C 46.917969 16.171875 46.667969 16.894531 46.640625 16.980469 C 46.59375 17.152344 46.207031 18.296875 46.152344 18.445312 C 46.121094 18.515625 46.046875 18.734375 45.984375 18.925781 C 45.921875 19.117188 45.839844 19.371094 45.796875 19.480469 C 45.65625 19.894531 45.167969 21.320312 45.121094 21.480469 C 45.042969 21.738281 44.785156 22.464844 44.761719 22.503906 C 44.75 22.523438 44.730469 22.601562 44.714844 22.679688 C 44.699219 22.75 44.675781 22.816406 44.65625 22.816406 C 44.636719 22.816406 44.625 22.851562 44.625 22.894531 C 44.625 22.9375 44.578125 23.070312 44.527344 23.1875 C 44.441406 23.382812 44.417969 23.40625 44.328125 23.40625 C 44.269531 23.40625 44.21875 23.421875 44.21875 23.4375 C 44.21875 23.453125 44.175781 23.492188 44.121094 23.527344 C 43.964844 23.617188 43.78125 23.816406 43.78125 23.890625 C 43.78125 24.019531 43.554688 24.039062 43.457031 23.921875 C 43.425781 23.882812 43.367188 23.816406 43.335938 23.777344 C 43.304688 23.742188 43.246094 23.644531 43.207031 23.566406 C 43.171875 23.488281 43.125 23.417969 43.113281 23.402344 C 43.070312 23.375 42.535156 22.308594 42.257812 21.699219 C 42.121094 21.40625 41.9375 21.011719 41.847656 20.820312 C 41.761719 20.632812 41.6875 20.457031 41.6875 20.433594 C 41.6875 20.40625 41.671875 20.371094 41.65625 20.351562 C 41.636719 20.328125 41.578125 20.207031 41.523438 20.074219 C 41.46875 19.941406 41.363281 19.691406 41.28125 19.527344 C 41.203125 19.355469 41.136719 19.207031 41.136719 19.195312 C 41.136719 19.171875 40.917969 18.679688 40.695312 18.1875 C 40.59375 17.976562 40.515625 17.796875 40.515625 17.785156 C 40.515625 17.773438 40.453125 17.640625 40.382812 17.484375 C 40.308594 17.328125 40.21875 17.128906 40.183594 17.035156 C 40.148438 16.945312 40.074219 16.773438 40.023438 16.660156 C 39.96875 16.542969 39.925781 16.414062 39.925781 16.375 C 39.925781 16.335938 39.914062 16.296875 39.898438 16.289062 C 39.871094 16.277344 39.820312 16.160156 39.589844 15.574219 C 39.496094 15.339844 39.332031 15.046875 39.222656 14.921875 C 39.070312 14.75 38.734375 14.574219 38.3125 14.453125 C 38.242188 14.433594 38.085938 14.386719 37.964844 14.351562 C 37.464844 14.207031 37.0625 14.089844 36.574219 13.945312 C 36.476562 13.914062 36.355469 13.890625 36.3125 13.890625 C 36.265625 13.890625 36.183594 13.875 36.132812 13.851562 C 36.042969 13.820312 36.039062 13.816406 36.0625 13.488281 C 36.097656 12.898438 35.988281 12.617188 35.554688 12.199219 C 35.410156 12.058594 34.453125 11.105469 33.433594 10.082031 C 32.414062 9.054688 31.507812 8.167969 31.421875 8.105469 C 31.335938 8.042969 31.207031 7.984375 31.132812 7.972656 C 31.019531 7.957031 30.992188 7.96875 30.851562 8.117188 Z M 54.039062 13.371094 L 58.128906 13.371094 L 58.121094 17.933594 C 58.109375 23.046875 58.132812 22.625 57.84375 22.917969 C 57.582031 23.179688 57.902344 23.167969 51.828125 23.15625 L 46.394531 23.148438 L 46.503906 22.839844 C 46.5625 22.675781 46.652344 22.410156 46.703125 22.257812 C 46.757812 22.105469 46.820312 21.929688 46.847656 21.863281 C 46.878906 21.800781 46.898438 21.722656 46.898438 21.6875 C 46.898438 21.65625 46.917969 21.628906 46.9375 21.628906 C 46.957031 21.628906 46.972656 21.601562 46.972656 21.5625 C 46.972656 21.496094 47.390625 20.28125 47.449219 20.179688 C 47.472656 20.140625 47.484375 20.082031 47.484375 20.042969 C 47.484375 20.007812 47.496094 19.964844 47.507812 19.957031 C 47.527344 19.933594 47.722656 19.394531 47.945312 18.722656 C 48.058594 18.390625 48.148438 18.136719 48.398438 17.425781 C 48.445312 17.304688 48.523438 17.070312 48.578125 16.90625 C 48.636719 16.746094 48.6875 16.605469 48.699219 16.59375 C 48.710938 16.582031 48.734375 16.523438 48.75 16.464844 C 48.777344 16.335938 49.234375 15.019531 49.285156 14.90625 C 49.304688 14.867188 49.351562 14.734375 49.390625 14.609375 C 49.445312 14.4375 49.699219 13.699219 49.816406 13.375 C 49.828125 13.347656 49.859375 13.335938 49.894531 13.347656 C 49.925781 13.359375 51.789062 13.371094 54.039062 13.371094 Z M 54.039062 13.371094 "/>
<path style=" stroke:none;fill-rule:nonzero;fill:rgb(0%,0%,0%);fill-opacity:1;" d="M 24.796875 16.128906 C 24.675781 16.195312 24.582031 16.285156 24.496094 16.425781 C 24.382812 16.601562 24.367188 16.65625 24.367188 16.867188 C 24.367188 17 24.386719 17.117188 24.402344 17.128906 C 24.425781 17.140625 24.441406 17.179688 24.441406 17.210938 C 24.441406 17.394531 24.859375 17.703125 25.109375 17.703125 C 25.347656 17.699219 25.6875 17.476562 25.746094 17.28125 C 25.761719 17.242188 25.789062 17.191406 25.808594 17.179688 C 25.832031 17.167969 25.847656 17.046875 25.847656 16.914062 C 25.851562 16.585938 25.734375 16.34375 25.488281 16.179688 C 25.242188 16.019531 25.035156 16.003906 24.796875 16.128906 Z M 24.796875 16.128906 "/>
<path style=" stroke:none;fill-rule:nonzero;fill:rgb(0%,0%,0%);fill-opacity:1;" d="M 21.726562 19.703125 C 21.632812 19.71875 21.492188 19.761719 21.414062 19.796875 C 21.242188 19.871094 20.847656 20.152344 20.84375 20.199219 C 20.84375 20.21875 20.804688 20.285156 20.757812 20.347656 C 20.347656 20.890625 20.316406 21.699219 20.675781 22.316406 C 21.121094 23.070312 21.980469 23.320312 22.710938 22.902344 C 22.867188 22.820312 23.148438 22.535156 23.242188 22.390625 C 23.433594 22.058594 23.492188 21.871094 23.511719 21.511719 C 23.542969 21.007812 23.445312 20.679688 23.164062 20.289062 C 22.835938 19.847656 22.246094 19.605469 21.726562 19.703125 Z M 21.726562 19.703125 "/>
<path style=" stroke:none;fill-rule:nonzero;fill:rgb(0%,0%,0%);fill-opacity:1;" d="M 60.011719 20.296875 C 60.011719 20.390625 60.019531 20.425781 60.027344 20.378906 C 60.03125 20.332031 60.03125 20.257812 60.027344 20.210938 C 60.019531 20.167969 60.011719 20.203125 60.011719 20.296875 Z M 60.011719 20.296875 "/>
<path style=" stroke:none;fill-rule:nonzero;fill:rgb(0%,0%,0%);fill-opacity:1;" d="M 22.167969 24.996094 C 21.703125 25.1875 21.40625 25.757812 21.503906 26.269531 C 21.582031 26.679688 21.789062 26.957031 22.152344 27.128906 C 22.378906 27.238281 22.515625 27.246094 22.761719 27.167969 C 23.054688 27.078125 23.222656 26.933594 23.410156 26.613281 C 23.484375 26.488281 23.5 26.402344 23.511719 26.09375 C 23.527344 25.730469 23.523438 25.71875 23.402344 25.5 C 23.136719 25.03125 22.613281 24.816406 22.167969 24.996094 Z M 22.167969 24.996094 "/>
<path style=" stroke:none;fill-rule:nonzero;fill:rgb(0%,0%,0%);fill-opacity:1;" d="M 17.371094 25 C 16.816406 25.082031 16.296875 25.417969 15.964844 25.90625 C 15.859375 26.054688 15.691406 26.433594 15.625 26.648438 C 15.484375 27.144531 15.539062 27.800781 15.765625 28.292969 C 16.277344 29.398438 17.425781 29.878906 18.441406 29.40625 C 19.003906 29.144531 19.480469 28.554688 19.65625 27.898438 C 19.734375 27.59375 19.726562 26.941406 19.640625 26.628906 C 19.433594 25.917969 18.949219 25.355469 18.347656 25.121094 C 17.917969 24.960938 17.773438 24.941406 17.371094 25 Z M 17.371094 25 "/>
<path style=" stroke:none;fill-rule:nonzero;fill:rgb(0%,0%,0%);fill-opacity:1;" d="M 17.191406 31.972656 C 17.113281 31.996094 17.039062 32.027344 17.027344 32.035156 C 17.015625 32.046875 16.949219 32.097656 16.878906 32.144531 C 16.578125 32.347656 16.367188 32.773438 16.367188 33.171875 C 16.367188 33.402344 16.425781 33.742188 16.476562 33.777344 C 16.488281 33.789062 16.535156 33.859375 16.582031 33.9375 C 16.6875 34.105469 16.992188 34.34375 17.1875 34.40625 C 17.425781 34.484375 17.847656 34.433594 18.03125 34.3125 C 18.242188 34.167969 18.402344 33.988281 18.496094 33.792969 C 18.8125 33.140625 18.558594 32.355469 17.9375 32.042969 C 17.738281 31.949219 17.398438 31.914062 17.191406 31.972656 Z M 17.191406 31.972656 "/>
<path style=" stroke:none;fill-rule:nonzero;fill:rgb(0%,0%,0%);fill-opacity:1;" d="M 20.550781 41.109375 C 20.550781 41.136719 20.433594 41.332031 20.292969 41.546875 C 19.980469 42.023438 20.03125 41.949219 19.667969 42.515625 C 19.503906 42.765625 19.375 42.976562 19.382812 42.980469 C 19.457031 43.050781 19.910156 43.332031 19.953125 43.332031 C 19.976562 43.332031 20.132812 43.128906 20.292969 42.878906 C 20.453125 42.628906 20.597656 42.40625 20.613281 42.390625 C 20.632812 42.367188 20.742188 42.191406 20.863281 42 C 20.984375 41.808594 21.101562 41.625 21.125 41.601562 C 21.207031 41.515625 21.183594 41.464844 21 41.351562 C 20.902344 41.292969 20.761719 41.203125 20.691406 41.15625 C 20.609375 41.105469 20.550781 41.089844 20.550781 41.109375 Z M 20.550781 41.109375 "/>
<path style=" stroke:none;fill-rule:nonzero;fill:rgb(0%,0%,0%);fill-opacity:1;" d="M 33.535156 41.804688 C 33.484375 41.867188 33.152344 42.371094 32.898438 42.785156 C 32.835938 42.886719 32.777344 42.964844 32.761719 42.964844 C 32.746094 42.964844 32.734375 42.980469 32.734375 43 C 32.734375 43.023438 32.652344 43.164062 32.550781 43.320312 C 32.453125 43.46875 32.367188 43.609375 32.367188 43.625 C 32.367188 43.652344 32.800781 43.949219 32.894531 43.984375 C 32.957031 44.007812 33.054688 43.914062 33.144531 43.746094 C 33.191406 43.652344 33.773438 42.75 33.824219 42.683594 C 33.871094 42.628906 34.164062 42.152344 34.164062 42.136719 C 34.164062 42.128906 34.0625 42.058594 33.9375 41.976562 C 33.808594 41.898438 33.683594 41.816406 33.660156 41.789062 C 33.597656 41.730469 33.601562 41.730469 33.535156 41.804688 Z M 33.535156 41.804688 "/>
<path style=" stroke:none;fill-rule:nonzero;fill:rgb(0%,0%,0%);fill-opacity:1;" d="M 14.121094 44.042969 C 14.085938 44.089844 14.054688 44.136719 14.054688 44.15625 C 14.054688 44.171875 13.980469 44.285156 13.894531 44.414062 C 13.703125 44.6875 12.992188 45.808594 12.992188 45.828125 C 12.992188 45.835938 13.101562 45.914062 13.242188 46.003906 C 13.375 46.089844 13.492188 46.175781 13.496094 46.191406 C 13.53125 46.277344 13.617188 46.179688 13.851562 45.808594 C 13.996094 45.585938 14.128906 45.382812 14.148438 45.359375 C 14.167969 45.332031 14.28125 45.15625 14.402344 44.964844 C 14.519531 44.769531 14.632812 44.605469 14.640625 44.59375 C 14.703125 44.535156 14.789062 44.363281 14.765625 44.328125 C 14.742188 44.285156 14.25 43.964844 14.210938 43.964844 C 14.195312 43.964844 14.152344 44 14.121094 44.042969 Z M 14.121094 44.042969 "/>
<path style=" stroke:none;fill-rule:nonzero;fill:rgb(0%,0%,0%);fill-opacity:1;" d="M 26.449219 45.414062 C 26.359375 45.542969 26.265625 45.6875 26.238281 45.738281 C 26.210938 45.789062 26.175781 45.847656 26.15625 45.867188 C 26.097656 45.9375 25.394531 47.050781 25.398438 47.074219 C 25.402344 47.117188 25.953125 47.449219 25.996094 47.433594 C 26.023438 47.421875 26.066406 47.367188 26.09375 47.308594 C 26.125 47.25 26.3125 46.953125 26.511719 46.648438 C 27.136719 45.691406 27.199219 45.589844 27.1875 45.578125 C 27.140625 45.542969 26.691406 45.234375 26.652344 45.210938 C 26.628906 45.191406 26.550781 45.265625 26.449219 45.414062 Z M 26.449219 45.414062 "/>
<path style=" stroke:none;fill-rule:nonzero;fill:rgb(0%,0%,0%);fill-opacity:1;" d="M 6.585938 47.242188 C 6.515625 47.351562 6.457031 47.453125 6.457031 47.464844 C 6.457031 47.492188 6.21875 47.832031 6.195312 47.84375 C 6.175781 47.851562 6.164062 47.875 6.164062 47.894531 C 6.164062 47.941406 5.941406 48.273438 5.902344 48.289062 C 5.886719 48.296875 5.871094 48.320312 5.871094 48.339844 C 5.871094 48.359375 5.796875 48.488281 5.707031 48.625 C 5.613281 48.765625 5.546875 48.898438 5.558594 48.929688 C 5.582031 48.980469 6.066406 49.296875 6.121094 49.296875 C 6.136719 49.296875 6.222656 49.175781 6.316406 49.027344 C 6.625 48.542969 6.769531 48.316406 6.808594 48.25 C 6.824219 48.21875 6.953125 48.023438 7.09375 47.820312 C 7.230469 47.609375 7.339844 47.4375 7.339844 47.429688 C 7.339844 47.414062 6.9375 47.15625 6.800781 47.078125 C 6.726562 47.039062 6.707031 47.050781 6.585938 47.242188 Z M 6.585938 47.242188 "/>
<path style=" stroke:none;fill-rule:nonzero;fill:rgb(0%,0%,0%);fill-opacity:1;" d="M 20.179688 48.101562 C 20.039062 48.269531 19.007812 49.875 19.007812 49.917969 C 19.007812 49.945312 19.121094 50.027344 19.40625 50.203125 C 19.554688 50.296875 19.667969 50.308594 19.667969 50.226562 C 19.667969 50.195312 20.222656 49.328125 20.320312 49.203125 C 20.367188 49.144531 20.808594 48.441406 20.808594 48.425781 C 20.808594 48.417969 20.703125 48.351562 20.578125 48.273438 C 20.453125 48.199219 20.324219 48.113281 20.289062 48.085938 C 20.242188 48.042969 20.222656 48.042969 20.179688 48.101562 Z M 20.179688 48.101562 "/>
<path style=" stroke:none;fill-rule:nonzero;fill:rgb(0%,0%,0%);fill-opacity:1;" d="M 32.507812 49.433594 C 32.453125 49.511719 32.308594 49.742188 32.179688 49.945312 C 32.050781 50.148438 31.824219 50.492188 31.679688 50.714844 C 31.535156 50.9375 31.414062 51.128906 31.414062 51.148438 C 31.414062 51.183594 31.941406 51.554688 31.992188 51.554688 C 32.015625 51.554688 32.035156 51.535156 32.046875 51.507812 C 32.066406 51.460938 32.371094 50.976562 32.996094 50.019531 C 33.195312 49.710938 33.207031 49.679688 33.148438 49.636719 C 33.113281 49.609375 33.058594 49.570312 33.027344 49.542969 C 32.964844 49.492188 32.636719 49.296875 32.613281 49.296875 C 32.605469 49.296875 32.554688 49.359375 32.507812 49.433594 Z M 32.507812 49.433594 "/>
<path style=" stroke:none;fill-rule:nonzero;fill:rgb(0%,0%,0%);fill-opacity:1;" d="M 12.695312 51.203125 C 12.695312 51.234375 12.683594 51.257812 12.660156 51.257812 C 12.640625 51.257812 12.625 51.273438 12.625 51.296875 C 12.625 51.339844 12.105469 52.125 12.066406 52.140625 C 12.050781 52.148438 12.035156 52.171875 12.035156 52.191406 C 12.035156 52.210938 11.96875 52.339844 11.878906 52.472656 C 11.789062 52.609375 11.675781 52.789062 11.625 52.871094 L 11.53125 53.019531 L 11.832031 53.214844 C 12.167969 53.441406 12.125 53.457031 12.375 53.050781 C 12.449219 52.929688 12.695312 52.535156 12.933594 52.175781 L 13.355469 51.519531 L 13.210938 51.425781 C 13.128906 51.375 13 51.292969 12.917969 51.242188 C 12.75 51.132812 12.695312 51.125 12.695312 51.203125 Z M 12.695312 51.203125 "/>
<path style=" stroke:none;fill-rule:nonzero;fill:rgb(0%,0%,0%);fill-opacity:1;" d="M 25.957031 52.527344 C 25.824219 52.738281 25.628906 53.039062 25.523438 53.203125 C 25.179688 53.738281 25.027344 53.988281 25.027344 54.027344 C 25.027344 54.042969 25.0625 54.082031 25.113281 54.105469 C 25.242188 54.179688 25.332031 54.234375 25.464844 54.328125 L 25.585938 54.417969 L 25.667969 54.3125 C 25.71875 54.25 25.78125 54.164062 25.804688 54.113281 C 25.855469 54.015625 26.4375 53.113281 26.488281 53.054688 C 26.566406 52.964844 26.789062 52.566406 26.789062 52.53125 C 26.789062 52.503906 26.722656 52.449219 26.644531 52.410156 C 26.570312 52.371094 26.480469 52.316406 26.453125 52.289062 C 26.394531 52.238281 26.25 52.148438 26.21875 52.148438 C 26.210938 52.148438 26.089844 52.320312 25.957031 52.527344 Z M 25.957031 52.527344 "/>
<path style=" stroke:none;fill-rule:nonzero;fill:rgb(0%,0%,0%);fill-opacity:1;" d="M 18.683594 55.328125 C 18.636719 55.390625 18.605469 55.449219 18.605469 55.460938 C 18.605469 55.488281 18.265625 55.980469 18.230469 55.992188 C 18.214844 56 18.203125 56.023438 18.203125 56.042969 C 18.203125 56.0625 18.128906 56.191406 18.039062 56.324219 C 17.953125 56.464844 17.804688 56.695312 17.714844 56.839844 L 17.546875 57.109375 L 17.816406 57.296875 C 18.078125 57.472656 18.203125 57.523438 18.203125 57.449219 C 18.203125 57.425781 18.335938 57.203125 18.507812 56.949219 C 18.671875 56.691406 18.914062 56.316406 19.046875 56.105469 C 19.175781 55.898438 19.304688 55.707031 19.328125 55.679688 C 19.363281 55.644531 19.324219 55.601562 19.109375 55.457031 C 18.964844 55.355469 18.824219 55.261719 18.800781 55.25 C 18.773438 55.234375 18.726562 55.265625 18.683594 55.328125 Z M 18.683594 55.328125 "/>
<path style=" stroke:none;fill-rule:nonzero;fill:rgb(0%,0%,0%);fill-opacity:1;" d="M 32.152344 56.339844 C 32.109375 56.40625 32.0625 56.476562 32.046875 56.5 C 32.03125 56.519531 31.972656 56.605469 31.925781 56.683594 C 31.878906 56.765625 31.691406 57.058594 31.511719 57.332031 C 31.148438 57.886719 31.046875 58.058594 31.046875 58.109375 C 31.046875 58.167969 31.558594 58.488281 31.613281 58.464844 C 31.660156 58.453125 31.882812 58.125 32.019531 57.882812 C 32.039062 57.84375 32.113281 57.726562 32.1875 57.621094 C 32.449219 57.242188 32.808594 56.671875 32.808594 56.636719 C 32.808594 56.613281 32.695312 56.53125 32.5625 56.441406 C 32.421875 56.351562 32.289062 56.265625 32.269531 56.25 C 32.234375 56.230469 32.199219 56.257812 32.152344 56.339844 Z M 32.152344 56.339844 "/>
<path style=" stroke:none;fill-rule:nonzero;fill:rgb(0%,0%,0%);fill-opacity:1;" d="M 12.683594 58.5625 C 12.648438 58.609375 12.457031 58.90625 12.257812 59.222656 C 12.054688 59.535156 11.863281 59.832031 11.828125 59.882812 C 11.679688 60.085938 11.554688 60.332031 11.578125 60.371094 C 11.597656 60.402344 12.09375 60.742188 12.125 60.742188 C 12.136719 60.742188 12.3125 60.476562 12.59375 60.035156 C 12.703125 59.863281 12.914062 59.539062 13.0625 59.320312 C 13.203125 59.097656 13.320312 58.894531 13.320312 58.875 C 13.320312 58.839844 12.808594 58.480469 12.757812 58.480469 C 12.753906 58.480469 12.714844 58.519531 12.683594 58.5625 Z M 12.683594 58.5625 "/>
<path style=" stroke:none;fill-rule:nonzero;fill:rgb(0%,0%,0%);fill-opacity:1;" d="M 24.585938 59.59375 C 24.496094 59.734375 24.410156 59.851562 24.394531 59.851562 C 24.378906 59.851562 24.367188 59.871094 24.367188 59.894531 C 24.367188 59.914062 24.296875 60.042969 24.210938 60.179688 C 24.121094 60.316406 23.9375 60.601562 23.800781 60.8125 C 23.554688 61.191406 23.554688 61.191406 23.628906 61.261719 C 23.667969 61.300781 23.714844 61.332031 23.726562 61.332031 C 23.742188 61.332031 23.84375 61.394531 23.953125 61.46875 C 24.058594 61.542969 24.152344 61.597656 24.15625 61.589844 C 24.164062 61.582031 24.210938 61.511719 24.269531 61.4375 C 24.324219 61.363281 24.367188 61.292969 24.367188 61.28125 C 24.367188 61.25 24.890625 60.464844 24.925781 60.453125 C 24.9375 60.445312 24.953125 60.417969 24.953125 60.394531 C 24.953125 60.375 25.046875 60.21875 25.160156 60.046875 C 25.363281 59.75 25.363281 59.734375 25.300781 59.675781 C 25.203125 59.589844 24.816406 59.332031 24.78125 59.332031 C 24.761719 59.332031 24.679688 59.453125 24.585938 59.59375 Z M 24.585938 59.59375 "/>
<path style=" stroke:none;fill-rule:nonzero;fill:rgb(0%,0%,0%);fill-opacity:1;" d="M 50.339844 62.027344 C 50.171875 62.285156 49.902344 62.703125 49.734375 62.960938 C 49.570312 63.214844 49.445312 63.4375 49.453125 63.453125 C 49.464844 63.46875 49.597656 63.566406 49.742188 63.667969 L 50.015625 63.84375 L 50.097656 63.730469 C 50.183594 63.609375 50.222656 63.550781 50.539062 63.054688 C 50.632812 62.910156 50.816406 62.625 50.949219 62.414062 C 51.085938 62.207031 51.203125 62.015625 51.210938 61.988281 C 51.222656 61.964844 51.167969 61.902344 51.09375 61.855469 C 51.015625 61.808594 50.882812 61.71875 50.800781 61.660156 L 50.640625 61.550781 Z M 50.339844 62.027344 "/>
<path style=" stroke:none;fill-rule:nonzero;fill:rgb(0%,0%,0%);fill-opacity:1;" d="M 63.429688 62.519531 C 63.328125 62.679688 63.238281 62.816406 63.222656 62.816406 C 63.203125 62.816406 63.191406 62.832031 63.191406 62.851562 C 63.191406 62.875 63.128906 62.984375 63.050781 63.105469 C 62.738281 63.574219 62.421875 64.074219 62.421875 64.101562 C 62.421875 64.132812 62.949219 64.480469 63 64.480469 C 63.011719 64.480469 63.128906 64.320312 63.257812 64.117188 C 63.382812 63.921875 63.503906 63.734375 63.523438 63.703125 C 63.960938 63.035156 64.183594 62.679688 64.183594 62.640625 C 64.183594 62.613281 64.082031 62.527344 63.957031 62.441406 C 63.828125 62.359375 63.722656 62.273438 63.714844 62.253906 C 63.679688 62.171875 63.601562 62.246094 63.429688 62.519531 Z M 63.429688 62.519531 "/>
<path style=" stroke:none;fill-rule:nonzero;fill:rgb(0%,0%,0%);fill-opacity:1;" d="M 18.382812 63.128906 C 18.191406 63.425781 18.023438 63.695312 18 63.734375 C 17.960938 63.804688 17.71875 64.179688 17.605469 64.339844 L 17.539062 64.441406 L 17.8125 64.625 C 17.964844 64.730469 18.109375 64.816406 18.140625 64.816406 C 18.167969 64.816406 18.210938 64.777344 18.234375 64.730469 C 18.300781 64.605469 18.355469 64.515625 18.5 64.296875 C 19.257812 63.136719 19.363281 62.964844 19.3125 62.929688 C 18.953125 62.679688 18.820312 62.59375 18.777344 62.59375 C 18.75 62.59375 18.574219 62.832031 18.382812 63.128906 Z M 18.382812 63.128906 "/>
<path style=" stroke:none;fill-rule:nonzero;fill:rgb(0%,0%,0%);fill-opacity:1;" d="M 30.519531 63.804688 C 30.382812 64.027344 30.113281 64.445312 29.921875 64.738281 C 29.734375 65.03125 29.578125 65.277344 29.578125 65.292969 C 29.578125 65.320312 30.109375 65.667969 30.15625 65.667969 C 30.1875 65.667969 30.316406 65.484375 30.496094 65.183594 C 30.691406 64.867188 31.0625 64.3125 31.085938 64.304688 C 31.105469 64.296875 31.121094 64.273438 31.121094 64.253906 C 31.121094 64.234375 31.179688 64.125 31.25 64.015625 C 31.371094 63.820312 31.375 63.804688 31.3125 63.753906 C 31.277344 63.730469 31.21875 63.695312 31.183594 63.683594 C 31.148438 63.671875 31.121094 63.644531 31.121094 63.625 C 31.121094 63.605469 31.101562 63.59375 31.074219 63.59375 C 31.054688 63.59375 30.980469 63.550781 30.914062 63.5 C 30.847656 63.449219 30.789062 63.40625 30.78125 63.40625 C 30.773438 63.40625 30.65625 63.585938 30.519531 63.804688 Z M 30.519531 63.804688 "/>
<path style=" stroke:none;fill-rule:nonzero;fill:rgb(0%,0%,0%);fill-opacity:1;" d="M 43.921875 64.929688 C 43.753906 65.195312 43.59375 65.4375 43.570312 65.464844 C 43.546875 65.492188 43.523438 65.53125 43.523438 65.550781 C 43.523438 65.574219 43.507812 65.59375 43.484375 65.59375 C 43.46875 65.59375 43.449219 65.605469 43.449219 65.625 C 43.449219 65.644531 43.359375 65.800781 43.246094 65.96875 C 43.046875 66.277344 43.007812 66.371094 43.089844 66.371094 C 43.113281 66.371094 43.242188 66.449219 43.378906 66.542969 C 43.519531 66.636719 43.636719 66.710938 43.644531 66.699219 C 43.6875 66.644531 43.890625 66.324219 43.890625 66.316406 C 43.890625 66.300781 44.199219 65.820312 44.628906 65.175781 C 44.746094 64.992188 44.84375 64.832031 44.84375 64.820312 C 44.839844 64.789062 44.3125 64.445312 44.265625 64.445312 C 44.246094 64.445312 44.089844 64.664062 43.921875 64.929688 Z M 43.921875 64.929688 "/>
<path style=" stroke:none;fill-rule:nonzero;fill:rgb(0%,0%,0%);fill-opacity:1;" d="M 56.476562 65.914062 C 56.390625 66.054688 56.226562 66.308594 56.117188 66.480469 C 56.007812 66.65625 55.8125 66.957031 55.683594 67.152344 C 55.453125 67.503906 55.414062 67.59375 55.484375 67.59375 C 55.503906 67.59375 55.625 67.667969 55.753906 67.757812 C 55.886719 67.851562 56.007812 67.925781 56.023438 67.925781 C 56.039062 67.921875 56.164062 67.75 56.296875 67.542969 C 56.433594 67.335938 56.699219 66.921875 56.894531 66.617188 C 57.089844 66.320312 57.246094 66.066406 57.246094 66.058594 C 57.246094 66.042969 56.683594 65.667969 56.65625 65.667969 C 56.644531 65.667969 56.566406 65.777344 56.476562 65.914062 Z M 56.476562 65.914062 "/>
<path style=" stroke:none;fill-rule:nonzero;fill:rgb(0%,0%,0%);fill-opacity:1;" d="M 24.476562 67.09375 C 24.328125 67.328125 24.1875 67.550781 24.164062 67.59375 C 24.148438 67.632812 24.117188 67.667969 24.101562 67.667969 C 24.085938 67.667969 24.074219 67.679688 24.074219 67.699219 C 24.074219 67.71875 23.957031 67.914062 23.8125 68.132812 C 23.566406 68.507812 23.554688 68.535156 23.617188 68.582031 C 23.660156 68.605469 23.71875 68.65625 23.753906 68.683594 C 23.789062 68.714844 23.828125 68.742188 23.84375 68.742188 C 23.851562 68.742188 23.917969 68.78125 23.984375 68.832031 C 24.050781 68.886719 24.117188 68.925781 24.136719 68.925781 C 24.160156 68.925781 24.472656 68.480469 24.511719 68.394531 C 24.515625 68.371094 24.601562 68.238281 24.695312 68.09375 C 25.355469 67.105469 25.367188 67.074219 25.300781 66.996094 C 25.265625 66.960938 25.222656 66.925781 25.199219 66.925781 C 25.183594 66.925781 25.085938 66.867188 24.992188 66.796875 C 24.894531 66.726562 24.800781 66.667969 24.785156 66.667969 C 24.765625 66.667969 24.628906 66.859375 24.476562 67.09375 Z M 24.476562 67.09375 "/>
<path style=" stroke:none;fill-rule:nonzero;fill:rgb(0%,0%,0%);fill-opacity:1;" d="M 36.671875 67.675781 C 36.621094 67.761719 36.359375 68.167969 36.097656 68.570312 C 35.839844 68.976562 35.617188 69.335938 35.609375 69.367188 C 35.601562 69.40625 35.683594 69.480469 35.859375 69.59375 C 36.007812 69.683594 36.136719 69.761719 36.152344 69.769531 C 36.171875 69.78125 36.695312 69.019531 36.695312 68.976562 C 36.695312 68.964844 36.738281 68.902344 36.789062 68.835938 C 36.839844 68.769531 36.878906 68.703125 36.878906 68.691406 C 36.878906 68.671875 37.210938 68.179688 37.246094 68.148438 C 37.257812 68.136719 37.296875 68.070312 37.328125 68 C 37.375 67.902344 37.378906 67.867188 37.347656 67.855469 C 37.320312 67.847656 37.191406 67.769531 37.0625 67.679688 C 36.925781 67.59375 36.808594 67.519531 36.792969 67.519531 C 36.78125 67.519531 36.726562 67.589844 36.671875 67.675781 Z M 36.671875 67.675781 "/>
<path style=" stroke:none;fill-rule:nonzero;fill:rgb(0%,0%,0%);fill-opacity:1;" d="M 50.066406 68.804688 C 49.96875 68.964844 49.851562 69.148438 49.8125 69.210938 C 49.777344 69.277344 49.730469 69.332031 49.71875 69.332031 C 49.703125 69.332031 49.6875 69.347656 49.6875 69.371094 C 49.6875 69.398438 49.304688 70.003906 49.097656 70.304688 L 49.027344 70.402344 L 49.167969 70.484375 C 49.242188 70.535156 49.308594 70.578125 49.320312 70.589844 C 49.332031 70.605469 49.398438 70.644531 49.46875 70.679688 C 49.539062 70.722656 49.605469 70.765625 49.613281 70.785156 C 49.636719 70.8125 49.796875 70.574219 50.316406 69.757812 C 50.445312 69.558594 50.621094 69.285156 50.703125 69.152344 L 50.859375 68.914062 L 50.667969 68.78125 C 50.433594 68.613281 50.28125 68.519531 50.265625 68.519531 C 50.257812 68.519531 50.167969 68.648438 50.066406 68.804688 Z M 50.066406 68.804688 "/>
<path style=" stroke:none;fill-rule:nonzero;fill:rgb(0%,0%,0%);fill-opacity:1;" d="M 30.671875 70.917969 C 30.605469 71.015625 30.492188 71.1875 30.421875 71.304688 C 30.351562 71.421875 30.28125 71.519531 30.269531 71.519531 C 30.253906 71.519531 30.238281 71.535156 30.238281 71.550781 C 30.238281 71.570312 30.136719 71.746094 30.015625 71.933594 C 29.617188 72.535156 29.578125 72.605469 29.578125 72.628906 C 29.578125 72.640625 29.625 72.679688 29.6875 72.714844 C 29.746094 72.75 29.816406 72.800781 29.84375 72.824219 C 29.867188 72.851562 29.953125 72.90625 30.027344 72.953125 L 30.164062 73.035156 L 30.421875 72.644531 C 30.5625 72.429688 30.679688 72.25 30.679688 72.242188 C 30.679688 72.234375 30.828125 72 31.011719 71.722656 C 31.191406 71.445312 31.351562 71.195312 31.359375 71.175781 C 31.363281 71.148438 31.242188 71.042969 31.082031 70.9375 L 30.792969 70.746094 Z M 30.671875 70.917969 "/>
<path style=" stroke:none;fill-rule:nonzero;fill:rgb(0%,0%,0%);fill-opacity:1;" d="M 42.675781 71.78125 C 42.628906 71.867188 42.5625 71.972656 42.53125 72.019531 C 42.503906 72.066406 42.363281 72.28125 42.21875 72.496094 C 41.679688 73.324219 41.617188 73.425781 41.613281 73.46875 C 41.613281 73.496094 41.742188 73.601562 41.898438 73.699219 C 42.105469 73.835938 42.195312 73.875 42.226562 73.84375 C 42.253906 73.820312 42.273438 73.792969 42.273438 73.773438 C 42.273438 73.746094 42.59375 73.234375 42.640625 73.183594 C 42.675781 73.152344 42.863281 72.855469 42.863281 72.835938 C 42.863281 72.804688 43.097656 72.464844 43.128906 72.453125 C 43.144531 72.445312 43.15625 72.421875 43.15625 72.398438 C 43.15625 72.382812 43.207031 72.292969 43.265625 72.203125 C 43.328125 72.113281 43.375 72.027344 43.375 72.007812 C 43.375 71.964844 42.867188 71.628906 42.804688 71.628906 C 42.785156 71.628906 42.726562 71.699219 42.675781 71.78125 Z M 42.675781 71.78125 "/>
<path style=" stroke:none;fill-rule:nonzero;fill:rgb(0%,0%,0%);fill-opacity:1;" d="M 36.710938 74.953125 C 36.679688 75.007812 36.546875 75.214844 36.421875 75.40625 C 35.785156 76.394531 35.621094 76.648438 35.617188 76.699219 C 35.613281 76.75 36.089844 77.109375 36.152344 77.109375 C 36.179688 77.109375 36.472656 76.671875 37.117188 75.679688 C 37.246094 75.464844 37.359375 75.277344 37.359375 75.25 C 37.355469 75.210938 36.917969 74.902344 36.808594 74.859375 C 36.789062 74.851562 36.75 74.894531 36.710938 74.953125 Z M 36.710938 74.953125 "/>
</g>
</svg>
