<?xml version="1.0" encoding="UTF-8"?>
<!-- Generator: Adobe Illustrator 17.0.0, SVG Export Plug-In . SVG Version: 6.00 Build 0) -->
<svg xmlns="http://www.w3.org/2000/svg" xmlns:xlink="http://www.w3.org/1999/xlink" id="Layer_1" x="0px" y="0px" width="89px" height="89px" viewBox="0 0 89 89" xml:space="preserve"> <g> <path fill="#000000" d="M44.345,86.062c-21.288,0-38.608-17.32-38.608-38.609c0-12.146,5.825-23.731,15.581-30.992l1.194,1.604 c-9.39,6.988-14.775,17.701-14.775,29.389c0,20.186,16.422,36.609,36.608,36.609s36.608-16.424,36.608-36.609 c0-16.983-11.515-31.618-28.002-35.59L53.42,9.92c17.389,4.188,29.533,19.623,29.533,37.533 C82.953,68.742,65.633,86.062,44.345,86.062z"/> <rect x="7" y="47" fill="#000000" width="74" height="2"/> <path fill="#000000" d="M44.476,71.813c-5.438,0-10.677-1.639-15.149-4.736l1.139-1.645c4.137,2.865,8.981,4.381,14.011,4.381 c5.047,0,9.908-1.527,14.058-4.416l1.143,1.641C55.189,70.161,49.934,71.813,44.476,71.813z"/> <path fill="#000000" d="M44.476,65.423c-4.149,0-8.147-1.256-11.56-3.633l1.143-1.641c3.076,2.141,6.678,3.273,10.417,3.273 c3.757,0,7.375-1.145,10.465-3.309l1.146,1.639C52.66,64.153,48.645,65.423,44.476,65.423z"/> <path fill="#000000" d="M44.476,58.851c-2.828,0-5.55-0.865-7.87-2.5l1.151-1.635c1.982,1.396,4.306,2.135,6.719,2.135 c2.433,0,4.771-0.75,6.764-2.168l1.16,1.629C50.066,57.972,47.326,58.851,44.476,58.851z"/> <rect x="34" y="32" fill="#000000" width="20" height="2"/> <rect x="34" y="43" fill="#000000" width="20" height="2"/> <path fill="#000000" d="M29.526,46.901c-4.662,0-8.454-3.794-8.454-8.456c0-4.66,3.792-8.451,8.454-8.451 c4.661,0,8.453,3.791,8.453,8.451C37.979,43.107,34.188,46.901,29.526,46.901z M29.526,31.994c-3.56,0-6.454,2.895-6.454,6.451 c0,3.56,2.895,6.456,6.454,6.456c3.558,0,6.453-2.896,6.453-6.456C35.979,34.889,33.084,31.994,29.526,31.994z"/> <path fill="#000000" d="M59.477,47.063c-4.661,0-8.453-3.794-8.453-8.456c0-4.66,3.792-8.451,8.453-8.451s8.454,3.791,8.454,8.451 C67.931,43.27,64.138,47.063,59.477,47.063z M59.477,32.156c-3.559,0-6.453,2.895-6.453,6.451c0,3.56,2.895,6.456,6.453,6.456 s6.454-2.896,6.454-6.456C65.931,35.051,63.035,32.156,59.477,32.156z"/> <path fill="#000000" d="M41.955,33.528L28.223,11.231l11.426-9.64l1.452,1.685L36.614,12h-5.298l12.342,20.26L41.955,33.528z M32.262,10h3.118l2.287-4.561L32.262,10z"/> </g> </svg>