<?xml version="1.0" encoding="UTF-8"?>
<!-- Generator: Adobe Illustrator 17.0.0, SVG Export Plug-In . SVG Version: 6.00 Build 0) -->
<svg xmlns="http://www.w3.org/2000/svg" xmlns:xlink="http://www.w3.org/1999/xlink" id="Layer_1" x="0px" y="0px" width="89px" height="89px" viewBox="0 0 89 89" xml:space="preserve"> <g> <path fill="#000000" d="M69.443,18.205l-1.305,1.518c8.109,6.967,12.761,17.092,12.761,27.775 c0,20.186-16.423,36.609-36.608,36.609S7.683,67.684,7.683,47.498c0-7,1.98-13.801,5.727-19.668l-1.686-1.076 c-3.951,6.189-6.041,13.363-6.041,20.744c0,21.289,17.32,38.609,38.608,38.609c21.289,0,38.608-17.32,38.608-38.609 C82.899,36.23,77.994,25.555,69.443,18.205z"/> <polygon fill="#000000" points="37,50 37,63 49,63 49,61 39,61 39,50 39,47 39,34 37,34 37,47 22,47 22,19 52,19 52,34 46,34 46,36 52,36 54,36 66,36 66,61 56,61 56,63 68,63 68,34 54,34 54,17 20,17 20,49 37,49 "/> </g> </svg>